<mxfile host="app.diagrams.net" modified="2024-04-28T19:16:59.077Z" agent="Mozilla/5.0 (Macintosh; Intel Mac OS X 10_15_7) AppleWebKit/537.36 (KHTML, like Gecko) Chrome/124.0.0.0 Safari/537.36" etag="AV7PN98IBdnGI6KLYGG4" version="24.2.7" type="google">
  <diagram name="Página-1" id="9x9WpYbFsUdBsjrm1sKR">
    <mxGraphModel grid="1" page="0" gridSize="10" guides="1" tooltips="1" connect="1" arrows="1" fold="1" pageScale="1" pageWidth="827" pageHeight="1169" math="0" shadow="0">
      <root>
        <mxCell id="0" />
        <mxCell id="1" parent="0" />
        <mxCell id="MsxnQjkOtoa7HXYsfpHn-152" value="" style="rounded=0;whiteSpace=wrap;html=1;fillColor=none;dashed=1;" vertex="1" parent="1">
          <mxGeometry x="3460" y="1170" width="360" height="430" as="geometry" />
        </mxCell>
        <mxCell id="MsxnQjkOtoa7HXYsfpHn-180" value="" style="rounded=0;whiteSpace=wrap;html=1;fillColor=none;dashed=1;" vertex="1" parent="1">
          <mxGeometry x="3060" y="520" width="780" height="1100" as="geometry" />
        </mxCell>
        <mxCell id="MsxnQjkOtoa7HXYsfpHn-1" value="" style="rounded=0;whiteSpace=wrap;html=1;fillColor=none;dashed=1;" vertex="1" parent="1">
          <mxGeometry x="3080" y="952" width="360" height="310" as="geometry" />
        </mxCell>
        <mxCell id="MsxnQjkOtoa7HXYsfpHn-139" value="" style="rounded=0;whiteSpace=wrap;html=1;fillColor=none;dashed=1;" vertex="1" parent="1">
          <mxGeometry x="3460" y="560" width="360" height="590" as="geometry" />
        </mxCell>
        <mxCell id="lZ0gh5wrKH4DqTvYVH8m-61" value="" style="rounded=0;whiteSpace=wrap;html=1;fillColor=none;dashed=1;" vertex="1" parent="1">
          <mxGeometry x="1200" y="960" width="520" height="340" as="geometry" />
        </mxCell>
        <mxCell id="njxgGYZu6FmAm6EYacmO-48" value="" style="rounded=0;whiteSpace=wrap;html=1;fillColor=none;dashed=1;" vertex="1" parent="1">
          <mxGeometry x="-270" y="20" width="560" height="2340" as="geometry" />
        </mxCell>
        <mxCell id="njxgGYZu6FmAm6EYacmO-71" value="" style="rounded=0;whiteSpace=wrap;html=1;fillColor=none;dashed=1;" vertex="1" parent="1">
          <mxGeometry x="-250" y="1600" width="520" height="520" as="geometry" />
        </mxCell>
        <mxCell id="njxgGYZu6FmAm6EYacmO-52" value="" style="rounded=0;whiteSpace=wrap;html=1;fillColor=none;dashed=1;" vertex="1" parent="1">
          <mxGeometry x="-250" y="70" width="520" height="310" as="geometry" />
        </mxCell>
        <mxCell id="njxgGYZu6FmAm6EYacmO-50" value="Registrar ingreso" style="ellipse;whiteSpace=wrap;html=1;" vertex="1" parent="1">
          <mxGeometry x="-150" y="90" width="120" height="60" as="geometry" />
        </mxCell>
        <mxCell id="njxgGYZu6FmAm6EYacmO-51" value="Registrar producción" style="ellipse;whiteSpace=wrap;html=1;" vertex="1" parent="1">
          <mxGeometry x="-150" y="170" width="120" height="60" as="geometry" />
        </mxCell>
        <mxCell id="njxgGYZu6FmAm6EYacmO-53" value="" style="rounded=0;whiteSpace=wrap;html=1;fillColor=none;dashed=1;" vertex="1" parent="1">
          <mxGeometry x="-250" y="410" width="520" height="340" as="geometry" />
        </mxCell>
        <mxCell id="njxgGYZu6FmAm6EYacmO-54" value="Registrar egreso" style="ellipse;whiteSpace=wrap;html=1;" vertex="1" parent="1">
          <mxGeometry x="-150" y="430" width="120" height="60" as="geometry" />
        </mxCell>
        <mxCell id="njxgGYZu6FmAm6EYacmO-55" value="Registrar movimiento interno" style="ellipse;whiteSpace=wrap;html=1;" vertex="1" parent="1">
          <mxGeometry x="-150" y="510" width="120" height="60" as="geometry" />
        </mxCell>
        <mxCell id="njxgGYZu6FmAm6EYacmO-56" value="" style="rounded=0;whiteSpace=wrap;html=1;fillColor=none;dashed=1;" vertex="1" parent="1">
          <mxGeometry x="-250" y="780" width="520" height="790" as="geometry" />
        </mxCell>
        <mxCell id="njxgGYZu6FmAm6EYacmO-57" value="Registrar silo" style="ellipse;whiteSpace=wrap;html=1;" vertex="1" parent="1">
          <mxGeometry x="-150" y="880" width="120" height="60" as="geometry" />
        </mxCell>
        <mxCell id="njxgGYZu6FmAm6EYacmO-108" style="rounded=0;orthogonalLoop=1;jettySize=auto;html=1;entryX=1;entryY=0.5;entryDx=0;entryDy=0;exitX=0;exitY=0.5;exitDx=0;exitDy=0;" edge="1" parent="1" source="njxgGYZu6FmAm6EYacmO-58" target="njxgGYZu6FmAm6EYacmO-57">
          <mxGeometry relative="1" as="geometry" />
        </mxCell>
        <mxCell id="njxgGYZu6FmAm6EYacmO-127" value="&amp;lt;extend&amp;gt;" style="edgeLabel;html=1;align=center;verticalAlign=middle;resizable=0;points=[];" connectable="0" vertex="1" parent="njxgGYZu6FmAm6EYacmO-108">
          <mxGeometry x="-0.2937" y="-2" relative="1" as="geometry">
            <mxPoint x="-11" y="8" as="offset" />
          </mxGeometry>
        </mxCell>
        <mxCell id="njxgGYZu6FmAm6EYacmO-58" value="Modificar silo" style="ellipse;whiteSpace=wrap;html=1;" vertex="1" parent="1">
          <mxGeometry x="50" y="840" width="120" height="60" as="geometry" />
        </mxCell>
        <mxCell id="njxgGYZu6FmAm6EYacmO-109" style="rounded=0;orthogonalLoop=1;jettySize=auto;html=1;entryX=1;entryY=0.5;entryDx=0;entryDy=0;exitX=0;exitY=0.5;exitDx=0;exitDy=0;" edge="1" parent="1" source="njxgGYZu6FmAm6EYacmO-59" target="njxgGYZu6FmAm6EYacmO-57">
          <mxGeometry relative="1" as="geometry" />
        </mxCell>
        <mxCell id="njxgGYZu6FmAm6EYacmO-128" value="&amp;lt;extend&amp;gt;" style="edgeLabel;html=1;align=center;verticalAlign=middle;resizable=0;points=[];" connectable="0" vertex="1" parent="njxgGYZu6FmAm6EYacmO-109">
          <mxGeometry x="-0.1004" y="3" relative="1" as="geometry">
            <mxPoint as="offset" />
          </mxGeometry>
        </mxCell>
        <mxCell id="njxgGYZu6FmAm6EYacmO-59" value="Eliminar silo" style="ellipse;whiteSpace=wrap;html=1;" vertex="1" parent="1">
          <mxGeometry x="50" y="920" width="120" height="60" as="geometry" />
        </mxCell>
        <mxCell id="njxgGYZu6FmAm6EYacmO-60" value="Registrar campo" style="ellipse;whiteSpace=wrap;html=1;" vertex="1" parent="1">
          <mxGeometry x="-150" y="1040" width="120" height="60" as="geometry" />
        </mxCell>
        <mxCell id="njxgGYZu6FmAm6EYacmO-61" value="Modificar campo" style="ellipse;whiteSpace=wrap;html=1;" vertex="1" parent="1">
          <mxGeometry x="50" y="1000" width="120" height="60" as="geometry" />
        </mxCell>
        <mxCell id="njxgGYZu6FmAm6EYacmO-62" value="Eliminar campo" style="ellipse;whiteSpace=wrap;html=1;" vertex="1" parent="1">
          <mxGeometry x="50" y="1080" width="120" height="60" as="geometry" />
        </mxCell>
        <mxCell id="njxgGYZu6FmAm6EYacmO-63" value="Registrar región" style="ellipse;whiteSpace=wrap;html=1;" vertex="1" parent="1">
          <mxGeometry x="-150" y="1200" width="120" height="60" as="geometry" />
        </mxCell>
        <mxCell id="njxgGYZu6FmAm6EYacmO-64" value="Modificar región" style="ellipse;whiteSpace=wrap;html=1;" vertex="1" parent="1">
          <mxGeometry x="50" y="1160" width="120" height="60" as="geometry" />
        </mxCell>
        <mxCell id="njxgGYZu6FmAm6EYacmO-65" value="Eliminar región" style="ellipse;whiteSpace=wrap;html=1;" vertex="1" parent="1">
          <mxGeometry x="50" y="1240" width="120" height="60" as="geometry" />
        </mxCell>
        <mxCell id="njxgGYZu6FmAm6EYacmO-66" value="Registrar declaración de stock" style="ellipse;whiteSpace=wrap;html=1;" vertex="1" parent="1">
          <mxGeometry x="-150" y="1320" width="120" height="60" as="geometry" />
        </mxCell>
        <mxCell id="njxgGYZu6FmAm6EYacmO-114" style="edgeStyle=orthogonalEdgeStyle;rounded=0;orthogonalLoop=1;jettySize=auto;html=1;" edge="1" parent="1" source="njxgGYZu6FmAm6EYacmO-67" target="njxgGYZu6FmAm6EYacmO-66">
          <mxGeometry relative="1" as="geometry" />
        </mxCell>
        <mxCell id="njxgGYZu6FmAm6EYacmO-133" value="&amp;lt;extend&amp;gt;" style="edgeLabel;html=1;align=center;verticalAlign=middle;resizable=0;points=[];" connectable="0" vertex="1" parent="njxgGYZu6FmAm6EYacmO-114">
          <mxGeometry x="-0.0472" y="3" relative="1" as="geometry">
            <mxPoint as="offset" />
          </mxGeometry>
        </mxCell>
        <mxCell id="njxgGYZu6FmAm6EYacmO-67" value="Modificar declaración de stock" style="ellipse;whiteSpace=wrap;html=1;" vertex="1" parent="1">
          <mxGeometry x="50" y="1320" width="120" height="60" as="geometry" />
        </mxCell>
        <mxCell id="njxgGYZu6FmAm6EYacmO-68" value="Registrar contraro" style="ellipse;whiteSpace=wrap;html=1;" vertex="1" parent="1">
          <mxGeometry x="-150" y="1664" width="120" height="60" as="geometry" />
        </mxCell>
        <mxCell id="njxgGYZu6FmAm6EYacmO-69" value="Modificar contrato" style="ellipse;whiteSpace=wrap;html=1;" vertex="1" parent="1">
          <mxGeometry x="50" y="1624" width="120" height="60" as="geometry" />
        </mxCell>
        <mxCell id="njxgGYZu6FmAm6EYacmO-70" value="Eliminar contrato" style="ellipse;whiteSpace=wrap;html=1;" vertex="1" parent="1">
          <mxGeometry x="50" y="1704" width="120" height="60" as="geometry" />
        </mxCell>
        <mxCell id="njxgGYZu6FmAm6EYacmO-72" value="Registrar empresa" style="ellipse;whiteSpace=wrap;html=1;" vertex="1" parent="1">
          <mxGeometry x="-150" y="1820" width="120" height="60" as="geometry" />
        </mxCell>
        <mxCell id="njxgGYZu6FmAm6EYacmO-73" value="Modificar empresa" style="ellipse;whiteSpace=wrap;html=1;" vertex="1" parent="1">
          <mxGeometry x="50" y="1780" width="120" height="60" as="geometry" />
        </mxCell>
        <mxCell id="njxgGYZu6FmAm6EYacmO-74" value="Eliminar empresa" style="ellipse;whiteSpace=wrap;html=1;" vertex="1" parent="1">
          <mxGeometry x="50" y="1860" width="120" height="60" as="geometry" />
        </mxCell>
        <mxCell id="njxgGYZu6FmAm6EYacmO-75" value="" style="rounded=0;whiteSpace=wrap;html=1;fillColor=none;dashed=1;" vertex="1" parent="1">
          <mxGeometry x="-250" y="2146" width="520" height="192" as="geometry" />
        </mxCell>
        <mxCell id="njxgGYZu6FmAm6EYacmO-77" value="Registrar usuario" style="ellipse;whiteSpace=wrap;html=1;" vertex="1" parent="1">
          <mxGeometry x="-150" y="2208" width="120" height="60" as="geometry" />
        </mxCell>
        <mxCell id="njxgGYZu6FmAm6EYacmO-78" value="Modificar usuario" style="ellipse;whiteSpace=wrap;html=1;" vertex="1" parent="1">
          <mxGeometry x="50" y="2168" width="120" height="60" as="geometry" />
        </mxCell>
        <mxCell id="njxgGYZu6FmAm6EYacmO-79" value="Eliminar usuario" style="ellipse;whiteSpace=wrap;html=1;" vertex="1" parent="1">
          <mxGeometry x="50" y="2248" width="120" height="60" as="geometry" />
        </mxCell>
        <mxCell id="njxgGYZu6FmAm6EYacmO-81" value="Administrativo" style="shape=umlActor;verticalLabelPosition=bottom;verticalAlign=top;html=1;outlineConnect=0;" vertex="1" parent="1">
          <mxGeometry x="490" y="180" width="30" height="60" as="geometry" />
        </mxCell>
        <mxCell id="njxgGYZu6FmAm6EYacmO-86" style="rounded=0;orthogonalLoop=1;jettySize=auto;html=1;exitX=0;exitY=0.3333333333333333;exitDx=0;exitDy=0;exitPerimeter=0;entryX=1;entryY=0.5;entryDx=0;entryDy=0;" edge="1" parent="1" source="njxgGYZu6FmAm6EYacmO-81" target="njxgGYZu6FmAm6EYacmO-50">
          <mxGeometry relative="1" as="geometry">
            <mxPoint x="-320" y="348" as="sourcePoint" />
            <mxPoint x="-40" y="130" as="targetPoint" />
          </mxGeometry>
        </mxCell>
        <mxCell id="njxgGYZu6FmAm6EYacmO-87" style="rounded=0;orthogonalLoop=1;jettySize=auto;html=1;entryX=1;entryY=0.5;entryDx=0;entryDy=0;exitX=0;exitY=0.3333333333333333;exitDx=0;exitDy=0;exitPerimeter=0;" edge="1" parent="1" source="njxgGYZu6FmAm6EYacmO-81" target="njxgGYZu6FmAm6EYacmO-51">
          <mxGeometry relative="1" as="geometry">
            <mxPoint x="-310" y="368" as="sourcePoint" />
            <mxPoint x="-50" y="290" as="targetPoint" />
          </mxGeometry>
        </mxCell>
        <mxCell id="njxgGYZu6FmAm6EYacmO-88" style="rounded=0;orthogonalLoop=1;jettySize=auto;html=1;entryX=1;entryY=0.5;entryDx=0;entryDy=0;exitX=0;exitY=0.3333333333333333;exitDx=0;exitDy=0;exitPerimeter=0;" edge="1" parent="1" source="njxgGYZu6FmAm6EYacmO-81" target="njxgGYZu6FmAm6EYacmO-54">
          <mxGeometry relative="1" as="geometry">
            <mxPoint x="-320" y="360" as="sourcePoint" />
            <mxPoint x="-40" y="300" as="targetPoint" />
          </mxGeometry>
        </mxCell>
        <mxCell id="njxgGYZu6FmAm6EYacmO-89" style="rounded=0;orthogonalLoop=1;jettySize=auto;html=1;entryX=1;entryY=0.5;entryDx=0;entryDy=0;exitX=0;exitY=0.3333333333333333;exitDx=0;exitDy=0;exitPerimeter=0;" edge="1" parent="1" source="njxgGYZu6FmAm6EYacmO-81" target="njxgGYZu6FmAm6EYacmO-55">
          <mxGeometry relative="1" as="geometry">
            <mxPoint x="-310" y="370" as="sourcePoint" />
            <mxPoint x="-30" y="310" as="targetPoint" />
          </mxGeometry>
        </mxCell>
        <mxCell id="njxgGYZu6FmAm6EYacmO-90" value="Encargado de&lt;div&gt;&amp;nbsp;Logísitica&lt;/div&gt;" style="shape=umlActor;verticalLabelPosition=bottom;verticalAlign=top;html=1;outlineConnect=0;" vertex="1" parent="1">
          <mxGeometry x="-600" y="980" width="30" height="60" as="geometry" />
        </mxCell>
        <mxCell id="njxgGYZu6FmAm6EYacmO-92" style="rounded=0;orthogonalLoop=1;jettySize=auto;html=1;entryX=0;entryY=0.5;entryDx=0;entryDy=0;exitX=1;exitY=0.3333333333333333;exitDx=0;exitDy=0;exitPerimeter=0;" edge="1" parent="1" source="njxgGYZu6FmAm6EYacmO-90" target="njxgGYZu6FmAm6EYacmO-57">
          <mxGeometry relative="1" as="geometry">
            <mxPoint x="-520" y="610" as="sourcePoint" />
            <mxPoint x="-250" y="760" as="targetPoint" />
          </mxGeometry>
        </mxCell>
        <mxCell id="njxgGYZu6FmAm6EYacmO-93" style="rounded=0;orthogonalLoop=1;jettySize=auto;html=1;entryX=0;entryY=0.5;entryDx=0;entryDy=0;exitX=1;exitY=0.3333333333333333;exitDx=0;exitDy=0;exitPerimeter=0;" edge="1" parent="1" source="njxgGYZu6FmAm6EYacmO-90" target="njxgGYZu6FmAm6EYacmO-60">
          <mxGeometry relative="1" as="geometry">
            <mxPoint x="-310" y="920" as="sourcePoint" />
            <mxPoint x="-140" y="770" as="targetPoint" />
          </mxGeometry>
        </mxCell>
        <mxCell id="njxgGYZu6FmAm6EYacmO-94" style="rounded=0;orthogonalLoop=1;jettySize=auto;html=1;entryX=0;entryY=0.5;entryDx=0;entryDy=0;exitX=1;exitY=0.3333333333333333;exitDx=0;exitDy=0;exitPerimeter=0;" edge="1" parent="1" source="njxgGYZu6FmAm6EYacmO-90" target="njxgGYZu6FmAm6EYacmO-63">
          <mxGeometry relative="1" as="geometry">
            <mxPoint x="-300" y="930" as="sourcePoint" />
            <mxPoint x="-130" y="780" as="targetPoint" />
          </mxGeometry>
        </mxCell>
        <mxCell id="njxgGYZu6FmAm6EYacmO-95" style="rounded=0;orthogonalLoop=1;jettySize=auto;html=1;entryX=0;entryY=0.5;entryDx=0;entryDy=0;exitX=1;exitY=0.3333333333333333;exitDx=0;exitDy=0;exitPerimeter=0;" edge="1" parent="1" source="njxgGYZu6FmAm6EYacmO-90" target="njxgGYZu6FmAm6EYacmO-66">
          <mxGeometry relative="1" as="geometry">
            <mxPoint x="-290" y="940" as="sourcePoint" />
            <mxPoint x="-120" y="790" as="targetPoint" />
          </mxGeometry>
        </mxCell>
        <mxCell id="njxgGYZu6FmAm6EYacmO-96" style="rounded=0;orthogonalLoop=1;jettySize=auto;html=1;entryX=0;entryY=0.5;entryDx=0;entryDy=0;exitX=1;exitY=0.3333333333333333;exitDx=0;exitDy=0;exitPerimeter=0;" edge="1" parent="1" source="njxgGYZu6FmAm6EYacmO-90" target="njxgGYZu6FmAm6EYacmO-68">
          <mxGeometry relative="1" as="geometry">
            <mxPoint x="-320" y="980" as="sourcePoint" />
            <mxPoint x="-110" y="780" as="targetPoint" />
          </mxGeometry>
        </mxCell>
        <mxCell id="njxgGYZu6FmAm6EYacmO-97" style="rounded=0;orthogonalLoop=1;jettySize=auto;html=1;entryX=0;entryY=0.5;entryDx=0;entryDy=0;exitX=1;exitY=0.3333333333333333;exitDx=0;exitDy=0;exitPerimeter=0;" edge="1" parent="1" source="njxgGYZu6FmAm6EYacmO-90" target="njxgGYZu6FmAm6EYacmO-72">
          <mxGeometry relative="1" as="geometry">
            <mxPoint x="-270" y="940" as="sourcePoint" />
            <mxPoint x="-100" y="790" as="targetPoint" />
          </mxGeometry>
        </mxCell>
        <mxCell id="njxgGYZu6FmAm6EYacmO-98" style="rounded=0;orthogonalLoop=1;jettySize=auto;html=1;entryX=0;entryY=0.5;entryDx=0;entryDy=0;exitX=1;exitY=0.3333333333333333;exitDx=0;exitDy=0;exitPerimeter=0;" edge="1" parent="1" source="njxgGYZu6FmAm6EYacmO-90" target="njxgGYZu6FmAm6EYacmO-77">
          <mxGeometry relative="1" as="geometry">
            <mxPoint x="-260" y="940" as="sourcePoint" />
            <mxPoint x="-90" y="790" as="targetPoint" />
          </mxGeometry>
        </mxCell>
        <mxCell id="njxgGYZu6FmAm6EYacmO-100" style="rounded=0;orthogonalLoop=1;jettySize=auto;html=1;entryX=0;entryY=0.5;entryDx=0;entryDy=0;exitX=1;exitY=0.3333333333333333;exitDx=0;exitDy=0;exitPerimeter=0;" edge="1" parent="1" source="njxgGYZu6FmAm6EYacmO-90" target="njxgGYZu6FmAm6EYacmO-55">
          <mxGeometry relative="1" as="geometry">
            <mxPoint x="-550" y="1210" as="sourcePoint" />
            <mxPoint x="-140" y="770" as="targetPoint" />
          </mxGeometry>
        </mxCell>
        <mxCell id="njxgGYZu6FmAm6EYacmO-101" style="rounded=0;orthogonalLoop=1;jettySize=auto;html=1;entryX=0;entryY=0.5;entryDx=0;entryDy=0;exitX=1;exitY=0.3333333333333333;exitDx=0;exitDy=0;exitPerimeter=0;" edge="1" parent="1" source="njxgGYZu6FmAm6EYacmO-90" target="njxgGYZu6FmAm6EYacmO-54">
          <mxGeometry relative="1" as="geometry">
            <mxPoint x="-540" y="1220" as="sourcePoint" />
            <mxPoint x="-130" y="780" as="targetPoint" />
          </mxGeometry>
        </mxCell>
        <mxCell id="njxgGYZu6FmAm6EYacmO-102" style="rounded=0;orthogonalLoop=1;jettySize=auto;html=1;entryX=0;entryY=0.5;entryDx=0;entryDy=0;exitX=1;exitY=0.3333333333333333;exitDx=0;exitDy=0;exitPerimeter=0;" edge="1" parent="1" source="njxgGYZu6FmAm6EYacmO-90" target="njxgGYZu6FmAm6EYacmO-51">
          <mxGeometry relative="1" as="geometry">
            <mxPoint x="-530" y="1230" as="sourcePoint" />
            <mxPoint x="-120" y="790" as="targetPoint" />
          </mxGeometry>
        </mxCell>
        <mxCell id="njxgGYZu6FmAm6EYacmO-103" style="rounded=0;orthogonalLoop=1;jettySize=auto;html=1;entryX=0;entryY=0.5;entryDx=0;entryDy=0;exitX=1;exitY=0.3333333333333333;exitDx=0;exitDy=0;exitPerimeter=0;" edge="1" parent="1" source="njxgGYZu6FmAm6EYacmO-90" target="njxgGYZu6FmAm6EYacmO-50">
          <mxGeometry relative="1" as="geometry">
            <mxPoint x="-520" y="1240" as="sourcePoint" />
            <mxPoint x="-110" y="800" as="targetPoint" />
          </mxGeometry>
        </mxCell>
        <mxCell id="njxgGYZu6FmAm6EYacmO-106" value="Gerente" style="shape=umlActor;verticalLabelPosition=bottom;verticalAlign=top;html=1;outlineConnect=0;" vertex="1" parent="1">
          <mxGeometry x="540" y="980" width="30" height="60" as="geometry" />
        </mxCell>
        <mxCell id="njxgGYZu6FmAm6EYacmO-110" style="rounded=0;orthogonalLoop=1;jettySize=auto;html=1;entryX=1;entryY=0.5;entryDx=0;entryDy=0;exitX=0;exitY=0.5;exitDx=0;exitDy=0;" edge="1" parent="1">
          <mxGeometry relative="1" as="geometry">
            <mxPoint x="50" y="1030" as="sourcePoint" />
            <mxPoint x="-30" y="1070" as="targetPoint" />
          </mxGeometry>
        </mxCell>
        <mxCell id="njxgGYZu6FmAm6EYacmO-129" value="&amp;lt;extend&amp;gt;" style="edgeLabel;html=1;align=center;verticalAlign=middle;resizable=0;points=[];" connectable="0" vertex="1" parent="njxgGYZu6FmAm6EYacmO-110">
          <mxGeometry x="-0.027" relative="1" as="geometry">
            <mxPoint as="offset" />
          </mxGeometry>
        </mxCell>
        <mxCell id="njxgGYZu6FmAm6EYacmO-111" style="rounded=0;orthogonalLoop=1;jettySize=auto;html=1;entryX=1;entryY=0.5;entryDx=0;entryDy=0;exitX=0;exitY=0.5;exitDx=0;exitDy=0;" edge="1" parent="1">
          <mxGeometry relative="1" as="geometry">
            <mxPoint x="50" y="1110" as="sourcePoint" />
            <mxPoint x="-30" y="1070" as="targetPoint" />
          </mxGeometry>
        </mxCell>
        <mxCell id="njxgGYZu6FmAm6EYacmO-130" value="&amp;lt;extend&amp;gt;" style="edgeLabel;html=1;align=center;verticalAlign=middle;resizable=0;points=[];" connectable="0" vertex="1" parent="njxgGYZu6FmAm6EYacmO-111">
          <mxGeometry x="-0.0781" y="-1" relative="1" as="geometry">
            <mxPoint y="1" as="offset" />
          </mxGeometry>
        </mxCell>
        <mxCell id="njxgGYZu6FmAm6EYacmO-112" style="rounded=0;orthogonalLoop=1;jettySize=auto;html=1;entryX=1;entryY=0.5;entryDx=0;entryDy=0;exitX=0;exitY=0.5;exitDx=0;exitDy=0;" edge="1" parent="1">
          <mxGeometry relative="1" as="geometry">
            <mxPoint x="50" y="1190" as="sourcePoint" />
            <mxPoint x="-30" y="1230" as="targetPoint" />
          </mxGeometry>
        </mxCell>
        <mxCell id="njxgGYZu6FmAm6EYacmO-131" value="&amp;lt;extend&amp;gt;" style="edgeLabel;html=1;align=center;verticalAlign=middle;resizable=0;points=[];" connectable="0" vertex="1" parent="njxgGYZu6FmAm6EYacmO-112">
          <mxGeometry x="-0.153" y="-3" relative="1" as="geometry">
            <mxPoint as="offset" />
          </mxGeometry>
        </mxCell>
        <mxCell id="njxgGYZu6FmAm6EYacmO-113" style="rounded=0;orthogonalLoop=1;jettySize=auto;html=1;entryX=1;entryY=0.5;entryDx=0;entryDy=0;exitX=0;exitY=0.5;exitDx=0;exitDy=0;" edge="1" parent="1">
          <mxGeometry relative="1" as="geometry">
            <mxPoint x="50" y="1270" as="sourcePoint" />
            <mxPoint x="-30" y="1230" as="targetPoint" />
          </mxGeometry>
        </mxCell>
        <mxCell id="njxgGYZu6FmAm6EYacmO-132" value="&amp;lt;extend&amp;gt;" style="edgeLabel;html=1;align=center;verticalAlign=middle;resizable=0;points=[];" connectable="0" vertex="1" parent="njxgGYZu6FmAm6EYacmO-113">
          <mxGeometry x="-0.0115" y="-2" relative="1" as="geometry">
            <mxPoint y="1" as="offset" />
          </mxGeometry>
        </mxCell>
        <mxCell id="njxgGYZu6FmAm6EYacmO-115" style="rounded=0;orthogonalLoop=1;jettySize=auto;html=1;entryX=1;entryY=0.5;entryDx=0;entryDy=0;exitX=0;exitY=0.5;exitDx=0;exitDy=0;" edge="1" parent="1">
          <mxGeometry relative="1" as="geometry">
            <mxPoint x="50" y="1654" as="sourcePoint" />
            <mxPoint x="-30" y="1694" as="targetPoint" />
          </mxGeometry>
        </mxCell>
        <mxCell id="njxgGYZu6FmAm6EYacmO-134" value="&amp;lt;extend&amp;gt;" style="edgeLabel;html=1;align=center;verticalAlign=middle;resizable=0;points=[];" connectable="0" vertex="1" parent="njxgGYZu6FmAm6EYacmO-115">
          <mxGeometry x="-0.03" relative="1" as="geometry">
            <mxPoint as="offset" />
          </mxGeometry>
        </mxCell>
        <mxCell id="njxgGYZu6FmAm6EYacmO-116" style="rounded=0;orthogonalLoop=1;jettySize=auto;html=1;entryX=1;entryY=0.5;entryDx=0;entryDy=0;exitX=0;exitY=0.5;exitDx=0;exitDy=0;" edge="1" parent="1">
          <mxGeometry relative="1" as="geometry">
            <mxPoint x="50" y="1734" as="sourcePoint" />
            <mxPoint x="-30" y="1694" as="targetPoint" />
          </mxGeometry>
        </mxCell>
        <mxCell id="njxgGYZu6FmAm6EYacmO-135" value="&amp;lt;extend&amp;gt;" style="edgeLabel;html=1;align=center;verticalAlign=middle;resizable=0;points=[];" connectable="0" vertex="1" parent="njxgGYZu6FmAm6EYacmO-116">
          <mxGeometry x="-0.053" y="2" relative="1" as="geometry">
            <mxPoint as="offset" />
          </mxGeometry>
        </mxCell>
        <mxCell id="njxgGYZu6FmAm6EYacmO-117" style="rounded=0;orthogonalLoop=1;jettySize=auto;html=1;entryX=1;entryY=0.5;entryDx=0;entryDy=0;exitX=0;exitY=0.5;exitDx=0;exitDy=0;" edge="1" parent="1">
          <mxGeometry relative="1" as="geometry">
            <mxPoint x="50" y="1810" as="sourcePoint" />
            <mxPoint x="-30" y="1850" as="targetPoint" />
          </mxGeometry>
        </mxCell>
        <mxCell id="njxgGYZu6FmAm6EYacmO-136" value="&amp;lt;extend&amp;gt;" style="edgeLabel;html=1;align=center;verticalAlign=middle;resizable=0;points=[];" connectable="0" vertex="1" parent="njxgGYZu6FmAm6EYacmO-117">
          <mxGeometry x="-0.1085" y="3" relative="1" as="geometry">
            <mxPoint as="offset" />
          </mxGeometry>
        </mxCell>
        <mxCell id="njxgGYZu6FmAm6EYacmO-118" style="rounded=0;orthogonalLoop=1;jettySize=auto;html=1;entryX=1;entryY=0.5;entryDx=0;entryDy=0;exitX=0;exitY=0.5;exitDx=0;exitDy=0;" edge="1" parent="1">
          <mxGeometry relative="1" as="geometry">
            <mxPoint x="50" y="1890" as="sourcePoint" />
            <mxPoint x="-30" y="1850" as="targetPoint" />
          </mxGeometry>
        </mxCell>
        <mxCell id="njxgGYZu6FmAm6EYacmO-137" value="&amp;lt;extend&amp;gt;" style="edgeLabel;html=1;align=center;verticalAlign=middle;resizable=0;points=[];" connectable="0" vertex="1" parent="njxgGYZu6FmAm6EYacmO-118">
          <mxGeometry x="-0.0337" y="-3" relative="1" as="geometry">
            <mxPoint as="offset" />
          </mxGeometry>
        </mxCell>
        <mxCell id="njxgGYZu6FmAm6EYacmO-119" style="rounded=0;orthogonalLoop=1;jettySize=auto;html=1;entryX=1;entryY=0.5;entryDx=0;entryDy=0;exitX=0;exitY=0.5;exitDx=0;exitDy=0;" edge="1" parent="1">
          <mxGeometry relative="1" as="geometry">
            <mxPoint x="50" y="2198" as="sourcePoint" />
            <mxPoint x="-30" y="2238" as="targetPoint" />
          </mxGeometry>
        </mxCell>
        <mxCell id="njxgGYZu6FmAm6EYacmO-138" value="&amp;lt;extend&amp;gt;" style="edgeLabel;html=1;align=center;verticalAlign=middle;resizable=0;points=[];" connectable="0" vertex="1" parent="njxgGYZu6FmAm6EYacmO-119">
          <mxGeometry x="-0.0937" y="1" relative="1" as="geometry">
            <mxPoint as="offset" />
          </mxGeometry>
        </mxCell>
        <mxCell id="njxgGYZu6FmAm6EYacmO-120" style="rounded=0;orthogonalLoop=1;jettySize=auto;html=1;entryX=1;entryY=0.5;entryDx=0;entryDy=0;exitX=0;exitY=0.5;exitDx=0;exitDy=0;" edge="1" parent="1">
          <mxGeometry relative="1" as="geometry">
            <mxPoint x="50" y="2278" as="sourcePoint" />
            <mxPoint x="-30" y="2238" as="targetPoint" />
          </mxGeometry>
        </mxCell>
        <mxCell id="njxgGYZu6FmAm6EYacmO-139" value="&amp;lt;extend&amp;gt;" style="edgeLabel;html=1;align=center;verticalAlign=middle;resizable=0;points=[];" connectable="0" vertex="1" parent="njxgGYZu6FmAm6EYacmO-120">
          <mxGeometry x="-0.1448" relative="1" as="geometry">
            <mxPoint y="1" as="offset" />
          </mxGeometry>
        </mxCell>
        <mxCell id="njxgGYZu6FmAm6EYacmO-121" value="Sisitema" style="text;html=1;align=center;verticalAlign=middle;whiteSpace=wrap;rounded=0;" vertex="1" parent="1">
          <mxGeometry x="230" y="20" width="60" height="30" as="geometry" />
        </mxCell>
        <mxCell id="njxgGYZu6FmAm6EYacmO-122" value="Subsistema de Ingresos" style="text;html=1;align=center;verticalAlign=middle;whiteSpace=wrap;rounded=0;" vertex="1" parent="1">
          <mxGeometry x="120" y="350" width="150" height="30" as="geometry" />
        </mxCell>
        <mxCell id="njxgGYZu6FmAm6EYacmO-123" value="Subsistema de Egresos&lt;span style=&quot;color: rgba(0, 0, 0, 0); font-family: monospace; font-size: 0px; text-align: start; text-wrap: nowrap;&quot;&gt;%3CmxGraphModel%3E%3Croot%3E%3CmxCell%20id%3D%220%22%2F%3E%3CmxCell%20id%3D%221%22%20parent%3D%220%22%2F%3E%3CmxCell%20id%3D%222%22%20value%3D%22Subsistema%20de%20Ingresos%22%20style%3D%22text%3Bhtml%3D1%3Balign%3Dcenter%3BverticalAlign%3Dmiddle%3BwhiteSpace%3Dwrap%3Brounded%3D0%3B%22%20vertex%3D%221%22%20parent%3D%221%22%3E%3CmxGeometry%20x%3D%22550%22%20y%3D%22750%22%20width%3D%22150%22%20height%3D%2230%22%20as%3D%22geometry%22%2F%3E%3C%2FmxCell%3E%3C%2Froot%3E%3C%2FmxGraphModel%3E&lt;/span&gt;" style="text;html=1;align=center;verticalAlign=middle;whiteSpace=wrap;rounded=0;" vertex="1" parent="1">
          <mxGeometry x="120" y="720" width="150" height="30" as="geometry" />
        </mxCell>
        <mxCell id="njxgGYZu6FmAm6EYacmO-124" value="Subsistema de Almacenes" style="text;html=1;align=center;verticalAlign=middle;whiteSpace=wrap;rounded=0;" vertex="1" parent="1">
          <mxGeometry x="120" y="1540" width="150" height="30" as="geometry" />
        </mxCell>
        <mxCell id="njxgGYZu6FmAm6EYacmO-125" value="Subsistema de Contratos" style="text;html=1;align=center;verticalAlign=middle;whiteSpace=wrap;rounded=0;" vertex="1" parent="1">
          <mxGeometry x="120" y="2090" width="150" height="30" as="geometry" />
        </mxCell>
        <mxCell id="njxgGYZu6FmAm6EYacmO-126" value="Subsistema de Usuarios" style="text;html=1;align=center;verticalAlign=middle;whiteSpace=wrap;rounded=0;" vertex="1" parent="1">
          <mxGeometry x="120" y="2308" width="150" height="30" as="geometry" />
        </mxCell>
        <mxCell id="4oRvghn-K44_Jk3WKabc-1" value="Registrar granos" style="ellipse;whiteSpace=wrap;html=1;" vertex="1" parent="1">
          <mxGeometry x="-150" y="800" width="120" height="60" as="geometry" />
        </mxCell>
        <mxCell id="4oRvghn-K44_Jk3WKabc-2" value="Buscar contrato" style="ellipse;whiteSpace=wrap;html=1;" vertex="1" parent="1">
          <mxGeometry x="-150" y="1980" width="120" height="60" as="geometry" />
        </mxCell>
        <mxCell id="4oRvghn-K44_Jk3WKabc-7" style="rounded=0;orthogonalLoop=1;jettySize=auto;html=1;entryX=0;entryY=0.5;entryDx=0;entryDy=0;exitX=1;exitY=0.3333333333333333;exitDx=0;exitDy=0;exitPerimeter=0;" edge="1" parent="1" source="njxgGYZu6FmAm6EYacmO-90" target="lZ0gh5wrKH4DqTvYVH8m-26">
          <mxGeometry relative="1" as="geometry">
            <mxPoint x="-560" y="1010" as="sourcePoint" />
            <mxPoint x="-50" y="310" as="targetPoint" />
          </mxGeometry>
        </mxCell>
        <mxCell id="4oRvghn-K44_Jk3WKabc-8" style="rounded=0;orthogonalLoop=1;jettySize=auto;html=1;entryX=1;entryY=1;entryDx=0;entryDy=0;exitX=0;exitY=0.3333333333333333;exitDx=0;exitDy=0;exitPerimeter=0;" edge="1" parent="1" source="njxgGYZu6FmAm6EYacmO-106" target="lZ0gh5wrKH4DqTvYVH8m-26">
          <mxGeometry relative="1" as="geometry">
            <mxPoint x="-550" y="1020" as="sourcePoint" />
            <mxPoint x="70" y="310" as="targetPoint" />
          </mxGeometry>
        </mxCell>
        <mxCell id="4oRvghn-K44_Jk3WKabc-9" style="rounded=0;orthogonalLoop=1;jettySize=auto;html=1;entryX=0;entryY=0.5;entryDx=0;entryDy=0;exitX=1;exitY=0.3333333333333333;exitDx=0;exitDy=0;exitPerimeter=0;" edge="1" parent="1" source="njxgGYZu6FmAm6EYacmO-90" target="lZ0gh5wrKH4DqTvYVH8m-19">
          <mxGeometry relative="1" as="geometry">
            <mxPoint x="-540" y="1030" as="sourcePoint" />
            <mxPoint x="-50" y="590" as="targetPoint" />
          </mxGeometry>
        </mxCell>
        <mxCell id="4oRvghn-K44_Jk3WKabc-10" style="rounded=0;orthogonalLoop=1;jettySize=auto;html=1;entryX=1;entryY=1;entryDx=0;entryDy=0;exitX=0;exitY=0.3333333333333333;exitDx=0;exitDy=0;exitPerimeter=0;" edge="1" parent="1" source="njxgGYZu6FmAm6EYacmO-106" target="lZ0gh5wrKH4DqTvYVH8m-19">
          <mxGeometry relative="1" as="geometry">
            <mxPoint x="-560" y="1010" as="sourcePoint" />
            <mxPoint x="70" y="590" as="targetPoint" />
          </mxGeometry>
        </mxCell>
        <mxCell id="4oRvghn-K44_Jk3WKabc-11" style="rounded=0;orthogonalLoop=1;jettySize=auto;html=1;entryX=0;entryY=0.5;entryDx=0;entryDy=0;exitX=1;exitY=0.3333333333333333;exitDx=0;exitDy=0;exitPerimeter=0;" edge="1" parent="1" source="njxgGYZu6FmAm6EYacmO-90" target="4oRvghn-K44_Jk3WKabc-1">
          <mxGeometry relative="1" as="geometry">
            <mxPoint x="-550" y="1020" as="sourcePoint" />
            <mxPoint x="-30" y="610" as="targetPoint" />
          </mxGeometry>
        </mxCell>
        <mxCell id="4oRvghn-K44_Jk3WKabc-12" style="rounded=0;orthogonalLoop=1;jettySize=auto;html=1;entryX=0;entryY=0.5;entryDx=0;entryDy=0;exitX=1;exitY=0.3333333333333333;exitDx=0;exitDy=0;exitPerimeter=0;" edge="1" parent="1" source="njxgGYZu6FmAm6EYacmO-90" target="lZ0gh5wrKH4DqTvYVH8m-12">
          <mxGeometry relative="1" as="geometry">
            <mxPoint x="-540" y="1030" as="sourcePoint" />
            <mxPoint x="-150" y="1340" as="targetPoint" />
          </mxGeometry>
        </mxCell>
        <mxCell id="4oRvghn-K44_Jk3WKabc-13" style="rounded=0;orthogonalLoop=1;jettySize=auto;html=1;entryX=1;entryY=0;entryDx=0;entryDy=0;exitX=0;exitY=0.3333333333333333;exitDx=0;exitDy=0;exitPerimeter=0;" edge="1" parent="1" source="njxgGYZu6FmAm6EYacmO-106" target="lZ0gh5wrKH4DqTvYVH8m-12">
          <mxGeometry relative="1" as="geometry">
            <mxPoint x="-530" y="1040" as="sourcePoint" />
            <mxPoint x="-30" y="1340" as="targetPoint" />
          </mxGeometry>
        </mxCell>
        <mxCell id="4oRvghn-K44_Jk3WKabc-14" style="rounded=0;orthogonalLoop=1;jettySize=auto;html=1;entryX=0;entryY=0.5;entryDx=0;entryDy=0;exitX=1;exitY=0.3333333333333333;exitDx=0;exitDy=0;exitPerimeter=0;" edge="1" parent="1" source="njxgGYZu6FmAm6EYacmO-90" target="4oRvghn-K44_Jk3WKabc-2">
          <mxGeometry relative="1" as="geometry">
            <mxPoint x="-560" y="1010" as="sourcePoint" />
            <mxPoint x="-40" y="1350" as="targetPoint" />
          </mxGeometry>
        </mxCell>
        <mxCell id="4oRvghn-K44_Jk3WKabc-15" style="rounded=0;orthogonalLoop=1;jettySize=auto;html=1;entryX=1;entryY=0;entryDx=0;entryDy=0;exitX=0;exitY=0.3333333333333333;exitDx=0;exitDy=0;exitPerimeter=0;" edge="1" parent="1" source="njxgGYZu6FmAm6EYacmO-106" target="4oRvghn-K44_Jk3WKabc-2">
          <mxGeometry relative="1" as="geometry">
            <mxPoint x="-550" y="1020" as="sourcePoint" />
            <mxPoint x="-30" y="1360" as="targetPoint" />
          </mxGeometry>
        </mxCell>
        <mxCell id="lZ0gh5wrKH4DqTvYVH8m-6" value="Filtrar búsqueda" style="ellipse;whiteSpace=wrap;html=1;" vertex="1" parent="1">
          <mxGeometry x="50" y="1940" width="120" height="60" as="geometry" />
        </mxCell>
        <mxCell id="lZ0gh5wrKH4DqTvYVH8m-7" value="Generar informe" style="ellipse;whiteSpace=wrap;html=1;" vertex="1" parent="1">
          <mxGeometry x="50" y="2020" width="120" height="60" as="geometry" />
        </mxCell>
        <mxCell id="lZ0gh5wrKH4DqTvYVH8m-8" style="rounded=0;orthogonalLoop=1;jettySize=auto;html=1;entryX=1;entryY=0.5;entryDx=0;entryDy=0;exitX=0;exitY=0.5;exitDx=0;exitDy=0;" edge="1" parent="1" target="4oRvghn-K44_Jk3WKabc-2">
          <mxGeometry relative="1" as="geometry">
            <mxPoint x="50" y="1970" as="sourcePoint" />
            <mxPoint x="-30" y="2010" as="targetPoint" />
          </mxGeometry>
        </mxCell>
        <mxCell id="lZ0gh5wrKH4DqTvYVH8m-9" value="&amp;lt;extend&amp;gt;" style="edgeLabel;html=1;align=center;verticalAlign=middle;resizable=0;points=[];" connectable="0" vertex="1" parent="lZ0gh5wrKH4DqTvYVH8m-8">
          <mxGeometry x="-0.1085" y="3" relative="1" as="geometry">
            <mxPoint as="offset" />
          </mxGeometry>
        </mxCell>
        <mxCell id="lZ0gh5wrKH4DqTvYVH8m-10" style="rounded=0;orthogonalLoop=1;jettySize=auto;html=1;entryX=1;entryY=0.5;entryDx=0;entryDy=0;exitX=0;exitY=0.5;exitDx=0;exitDy=0;" edge="1" parent="1" target="4oRvghn-K44_Jk3WKabc-2">
          <mxGeometry relative="1" as="geometry">
            <mxPoint x="50" y="2050" as="sourcePoint" />
            <mxPoint x="-30" y="2010" as="targetPoint" />
          </mxGeometry>
        </mxCell>
        <mxCell id="lZ0gh5wrKH4DqTvYVH8m-11" value="&amp;lt;extend&amp;gt;" style="edgeLabel;html=1;align=center;verticalAlign=middle;resizable=0;points=[];" connectable="0" vertex="1" parent="lZ0gh5wrKH4DqTvYVH8m-10">
          <mxGeometry x="-0.0337" y="-3" relative="1" as="geometry">
            <mxPoint as="offset" />
          </mxGeometry>
        </mxCell>
        <mxCell id="lZ0gh5wrKH4DqTvYVH8m-12" value="Buscar almacén" style="ellipse;whiteSpace=wrap;html=1;" vertex="1" parent="1">
          <mxGeometry x="-150" y="1435" width="120" height="60" as="geometry" />
        </mxCell>
        <mxCell id="lZ0gh5wrKH4DqTvYVH8m-13" value="Filtrar búsqueda" style="ellipse;whiteSpace=wrap;html=1;" vertex="1" parent="1">
          <mxGeometry x="50" y="1395" width="120" height="60" as="geometry" />
        </mxCell>
        <mxCell id="lZ0gh5wrKH4DqTvYVH8m-14" value="Generar informe" style="ellipse;whiteSpace=wrap;html=1;" vertex="1" parent="1">
          <mxGeometry x="50" y="1475" width="120" height="60" as="geometry" />
        </mxCell>
        <mxCell id="lZ0gh5wrKH4DqTvYVH8m-15" style="rounded=0;orthogonalLoop=1;jettySize=auto;html=1;entryX=1;entryY=0.5;entryDx=0;entryDy=0;exitX=0;exitY=0.5;exitDx=0;exitDy=0;" edge="1" parent="1" target="lZ0gh5wrKH4DqTvYVH8m-12">
          <mxGeometry relative="1" as="geometry">
            <mxPoint x="50" y="1425" as="sourcePoint" />
            <mxPoint x="-30" y="1465" as="targetPoint" />
          </mxGeometry>
        </mxCell>
        <mxCell id="lZ0gh5wrKH4DqTvYVH8m-16" value="&amp;lt;extend&amp;gt;" style="edgeLabel;html=1;align=center;verticalAlign=middle;resizable=0;points=[];" connectable="0" vertex="1" parent="lZ0gh5wrKH4DqTvYVH8m-15">
          <mxGeometry x="-0.1085" y="3" relative="1" as="geometry">
            <mxPoint as="offset" />
          </mxGeometry>
        </mxCell>
        <mxCell id="lZ0gh5wrKH4DqTvYVH8m-17" style="rounded=0;orthogonalLoop=1;jettySize=auto;html=1;entryX=1;entryY=0.5;entryDx=0;entryDy=0;exitX=0;exitY=0.5;exitDx=0;exitDy=0;" edge="1" parent="1" target="lZ0gh5wrKH4DqTvYVH8m-12">
          <mxGeometry relative="1" as="geometry">
            <mxPoint x="50" y="1505" as="sourcePoint" />
            <mxPoint x="-30" y="1465" as="targetPoint" />
          </mxGeometry>
        </mxCell>
        <mxCell id="lZ0gh5wrKH4DqTvYVH8m-18" value="&amp;lt;extend&amp;gt;" style="edgeLabel;html=1;align=center;verticalAlign=middle;resizable=0;points=[];" connectable="0" vertex="1" parent="lZ0gh5wrKH4DqTvYVH8m-17">
          <mxGeometry x="-0.0337" y="-3" relative="1" as="geometry">
            <mxPoint as="offset" />
          </mxGeometry>
        </mxCell>
        <mxCell id="lZ0gh5wrKH4DqTvYVH8m-19" value="Buscar egreso" style="ellipse;whiteSpace=wrap;html=1;" vertex="1" parent="1">
          <mxGeometry x="-150" y="620" width="120" height="60" as="geometry" />
        </mxCell>
        <mxCell id="lZ0gh5wrKH4DqTvYVH8m-20" value="Filtrar búsqueda" style="ellipse;whiteSpace=wrap;html=1;" vertex="1" parent="1">
          <mxGeometry x="50" y="580" width="120" height="60" as="geometry" />
        </mxCell>
        <mxCell id="lZ0gh5wrKH4DqTvYVH8m-21" value="Generar informe" style="ellipse;whiteSpace=wrap;html=1;" vertex="1" parent="1">
          <mxGeometry x="50" y="660" width="120" height="60" as="geometry" />
        </mxCell>
        <mxCell id="lZ0gh5wrKH4DqTvYVH8m-22" style="rounded=0;orthogonalLoop=1;jettySize=auto;html=1;entryX=1;entryY=0.5;entryDx=0;entryDy=0;exitX=0;exitY=0.5;exitDx=0;exitDy=0;" edge="1" parent="1" target="lZ0gh5wrKH4DqTvYVH8m-19">
          <mxGeometry relative="1" as="geometry">
            <mxPoint x="50" y="610" as="sourcePoint" />
            <mxPoint x="-30" y="650" as="targetPoint" />
          </mxGeometry>
        </mxCell>
        <mxCell id="lZ0gh5wrKH4DqTvYVH8m-23" value="&amp;lt;extend&amp;gt;" style="edgeLabel;html=1;align=center;verticalAlign=middle;resizable=0;points=[];" connectable="0" vertex="1" parent="lZ0gh5wrKH4DqTvYVH8m-22">
          <mxGeometry x="-0.1085" y="3" relative="1" as="geometry">
            <mxPoint as="offset" />
          </mxGeometry>
        </mxCell>
        <mxCell id="lZ0gh5wrKH4DqTvYVH8m-24" style="rounded=0;orthogonalLoop=1;jettySize=auto;html=1;entryX=1;entryY=0.5;entryDx=0;entryDy=0;exitX=0;exitY=0.5;exitDx=0;exitDy=0;" edge="1" parent="1" target="lZ0gh5wrKH4DqTvYVH8m-19">
          <mxGeometry relative="1" as="geometry">
            <mxPoint x="50" y="690" as="sourcePoint" />
            <mxPoint x="-30" y="650" as="targetPoint" />
          </mxGeometry>
        </mxCell>
        <mxCell id="lZ0gh5wrKH4DqTvYVH8m-25" value="&amp;lt;extend&amp;gt;" style="edgeLabel;html=1;align=center;verticalAlign=middle;resizable=0;points=[];" connectable="0" vertex="1" parent="lZ0gh5wrKH4DqTvYVH8m-24">
          <mxGeometry x="-0.0337" y="-3" relative="1" as="geometry">
            <mxPoint as="offset" />
          </mxGeometry>
        </mxCell>
        <mxCell id="lZ0gh5wrKH4DqTvYVH8m-26" value="Buscar ingreso" style="ellipse;whiteSpace=wrap;html=1;" vertex="1" parent="1">
          <mxGeometry x="-150" y="250" width="120" height="60" as="geometry" />
        </mxCell>
        <mxCell id="lZ0gh5wrKH4DqTvYVH8m-27" value="Filtrar búsqueda" style="ellipse;whiteSpace=wrap;html=1;" vertex="1" parent="1">
          <mxGeometry x="50" y="210" width="120" height="60" as="geometry" />
        </mxCell>
        <mxCell id="lZ0gh5wrKH4DqTvYVH8m-28" value="Generar informe" style="ellipse;whiteSpace=wrap;html=1;" vertex="1" parent="1">
          <mxGeometry x="50" y="290" width="120" height="60" as="geometry" />
        </mxCell>
        <mxCell id="lZ0gh5wrKH4DqTvYVH8m-29" style="rounded=0;orthogonalLoop=1;jettySize=auto;html=1;entryX=1;entryY=0.5;entryDx=0;entryDy=0;exitX=0;exitY=0.5;exitDx=0;exitDy=0;" edge="1" parent="1" target="lZ0gh5wrKH4DqTvYVH8m-26">
          <mxGeometry relative="1" as="geometry">
            <mxPoint x="50" y="240" as="sourcePoint" />
            <mxPoint x="-30" y="280" as="targetPoint" />
          </mxGeometry>
        </mxCell>
        <mxCell id="lZ0gh5wrKH4DqTvYVH8m-30" value="&amp;lt;extend&amp;gt;" style="edgeLabel;html=1;align=center;verticalAlign=middle;resizable=0;points=[];" connectable="0" vertex="1" parent="lZ0gh5wrKH4DqTvYVH8m-29">
          <mxGeometry x="-0.1085" y="3" relative="1" as="geometry">
            <mxPoint as="offset" />
          </mxGeometry>
        </mxCell>
        <mxCell id="lZ0gh5wrKH4DqTvYVH8m-31" style="rounded=0;orthogonalLoop=1;jettySize=auto;html=1;entryX=1;entryY=0.5;entryDx=0;entryDy=0;exitX=0;exitY=0.5;exitDx=0;exitDy=0;" edge="1" parent="1" target="lZ0gh5wrKH4DqTvYVH8m-26">
          <mxGeometry relative="1" as="geometry">
            <mxPoint x="50" y="320" as="sourcePoint" />
            <mxPoint x="-30" y="280" as="targetPoint" />
          </mxGeometry>
        </mxCell>
        <mxCell id="lZ0gh5wrKH4DqTvYVH8m-32" value="&amp;lt;extend&amp;gt;" style="edgeLabel;html=1;align=center;verticalAlign=middle;resizable=0;points=[];" connectable="0" vertex="1" parent="lZ0gh5wrKH4DqTvYVH8m-31">
          <mxGeometry x="-0.0337" y="-3" relative="1" as="geometry">
            <mxPoint as="offset" />
          </mxGeometry>
        </mxCell>
        <mxCell id="lZ0gh5wrKH4DqTvYVH8m-56" value="" style="rounded=0;whiteSpace=wrap;html=1;fillColor=none;dashed=1;" vertex="1" parent="1">
          <mxGeometry x="1180" y="300" width="1120" height="1600" as="geometry" />
        </mxCell>
        <mxCell id="lZ0gh5wrKH4DqTvYVH8m-57" value="" style="rounded=0;whiteSpace=wrap;html=1;fillColor=none;dashed=1;" vertex="1" parent="1">
          <mxGeometry x="1760" y="1264" width="520" height="606" as="geometry" />
        </mxCell>
        <mxCell id="lZ0gh5wrKH4DqTvYVH8m-58" value="" style="rounded=0;whiteSpace=wrap;html=1;fillColor=none;dashed=1;" vertex="1" parent="1">
          <mxGeometry x="1200" y="620" width="520" height="310" as="geometry" />
        </mxCell>
        <mxCell id="lZ0gh5wrKH4DqTvYVH8m-184" style="rounded=0;orthogonalLoop=1;jettySize=auto;html=1;entryX=0;entryY=0.5;entryDx=0;entryDy=0;exitX=1;exitY=0.5;exitDx=0;exitDy=0;" edge="1" parent="1" source="lZ0gh5wrKH4DqTvYVH8m-59" target="lZ0gh5wrKH4DqTvYVH8m-153">
          <mxGeometry relative="1" as="geometry">
            <Array as="points">
              <mxPoint x="1690" y="740" />
            </Array>
          </mxGeometry>
        </mxCell>
        <mxCell id="lZ0gh5wrKH4DqTvYVH8m-185" value="&amp;lt;include&amp;gt;" style="edgeLabel;html=1;align=center;verticalAlign=middle;resizable=0;points=[];" vertex="1" connectable="0" parent="lZ0gh5wrKH4DqTvYVH8m-184">
          <mxGeometry x="-0.6113" y="-4" relative="1" as="geometry">
            <mxPoint x="-11" y="-8" as="offset" />
          </mxGeometry>
        </mxCell>
        <mxCell id="lZ0gh5wrKH4DqTvYVH8m-189" style="rounded=0;orthogonalLoop=1;jettySize=auto;html=1;entryX=0;entryY=0.5;entryDx=0;entryDy=0;" edge="1" parent="1" source="lZ0gh5wrKH4DqTvYVH8m-59" target="lZ0gh5wrKH4DqTvYVH8m-137">
          <mxGeometry relative="1" as="geometry">
            <Array as="points">
              <mxPoint x="1680" y="670" />
              <mxPoint x="1690" y="1370" />
            </Array>
          </mxGeometry>
        </mxCell>
        <mxCell id="lZ0gh5wrKH4DqTvYVH8m-59" value="Registrar compra" style="ellipse;whiteSpace=wrap;html=1;" vertex="1" parent="1">
          <mxGeometry x="1300" y="640" width="120" height="60" as="geometry" />
        </mxCell>
        <mxCell id="lZ0gh5wrKH4DqTvYVH8m-60" value="Registrar producción" style="ellipse;whiteSpace=wrap;html=1;" vertex="1" parent="1">
          <mxGeometry x="1300" y="720" width="120" height="60" as="geometry" />
        </mxCell>
        <mxCell id="lZ0gh5wrKH4DqTvYVH8m-62" value="Registrar salida" style="ellipse;whiteSpace=wrap;html=1;" vertex="1" parent="1">
          <mxGeometry x="1300" y="980" width="120" height="60" as="geometry" />
        </mxCell>
        <mxCell id="lZ0gh5wrKH4DqTvYVH8m-63" value="Registrar movimiento interno" style="ellipse;whiteSpace=wrap;html=1;" vertex="1" parent="1">
          <mxGeometry x="1300" y="1060" width="120" height="60" as="geometry" />
        </mxCell>
        <mxCell id="lZ0gh5wrKH4DqTvYVH8m-64" value="" style="rounded=0;whiteSpace=wrap;html=1;fillColor=none;dashed=1;" vertex="1" parent="1">
          <mxGeometry x="1760" y="330" width="520" height="904" as="geometry" />
        </mxCell>
        <mxCell id="lZ0gh5wrKH4DqTvYVH8m-65" value="Registrar silo" style="ellipse;whiteSpace=wrap;html=1;" vertex="1" parent="1">
          <mxGeometry x="1860" y="544" width="120" height="60" as="geometry" />
        </mxCell>
        <mxCell id="lZ0gh5wrKH4DqTvYVH8m-66" style="rounded=0;orthogonalLoop=1;jettySize=auto;html=1;entryX=1;entryY=0.5;entryDx=0;entryDy=0;exitX=0;exitY=0.5;exitDx=0;exitDy=0;" edge="1" parent="1" source="lZ0gh5wrKH4DqTvYVH8m-68" target="lZ0gh5wrKH4DqTvYVH8m-65">
          <mxGeometry relative="1" as="geometry" />
        </mxCell>
        <mxCell id="lZ0gh5wrKH4DqTvYVH8m-67" value="&amp;lt;extend&amp;gt;" style="edgeLabel;html=1;align=center;verticalAlign=middle;resizable=0;points=[];" connectable="0" vertex="1" parent="lZ0gh5wrKH4DqTvYVH8m-66">
          <mxGeometry x="-0.2937" y="-2" relative="1" as="geometry">
            <mxPoint x="-11" y="8" as="offset" />
          </mxGeometry>
        </mxCell>
        <mxCell id="lZ0gh5wrKH4DqTvYVH8m-68" value="Modificar silo" style="ellipse;whiteSpace=wrap;html=1;" vertex="1" parent="1">
          <mxGeometry x="2060" y="504" width="120" height="60" as="geometry" />
        </mxCell>
        <mxCell id="lZ0gh5wrKH4DqTvYVH8m-69" style="rounded=0;orthogonalLoop=1;jettySize=auto;html=1;entryX=1;entryY=0.5;entryDx=0;entryDy=0;exitX=0;exitY=0.5;exitDx=0;exitDy=0;" edge="1" parent="1" source="lZ0gh5wrKH4DqTvYVH8m-71" target="lZ0gh5wrKH4DqTvYVH8m-65">
          <mxGeometry relative="1" as="geometry" />
        </mxCell>
        <mxCell id="lZ0gh5wrKH4DqTvYVH8m-70" value="&amp;lt;extend&amp;gt;" style="edgeLabel;html=1;align=center;verticalAlign=middle;resizable=0;points=[];" connectable="0" vertex="1" parent="lZ0gh5wrKH4DqTvYVH8m-69">
          <mxGeometry x="-0.1004" y="3" relative="1" as="geometry">
            <mxPoint as="offset" />
          </mxGeometry>
        </mxCell>
        <mxCell id="lZ0gh5wrKH4DqTvYVH8m-71" value="Eliminar silo" style="ellipse;whiteSpace=wrap;html=1;" vertex="1" parent="1">
          <mxGeometry x="2060" y="584" width="120" height="60" as="geometry" />
        </mxCell>
        <mxCell id="lZ0gh5wrKH4DqTvYVH8m-72" value="Registrar campo" style="ellipse;whiteSpace=wrap;html=1;" vertex="1" parent="1">
          <mxGeometry x="1860" y="704" width="120" height="60" as="geometry" />
        </mxCell>
        <mxCell id="lZ0gh5wrKH4DqTvYVH8m-73" value="Modificar campo" style="ellipse;whiteSpace=wrap;html=1;" vertex="1" parent="1">
          <mxGeometry x="2060" y="664" width="120" height="60" as="geometry" />
        </mxCell>
        <mxCell id="lZ0gh5wrKH4DqTvYVH8m-74" value="Eliminar campo" style="ellipse;whiteSpace=wrap;html=1;" vertex="1" parent="1">
          <mxGeometry x="2060" y="744" width="120" height="60" as="geometry" />
        </mxCell>
        <mxCell id="lZ0gh5wrKH4DqTvYVH8m-75" value="Registrar región" style="ellipse;whiteSpace=wrap;html=1;" vertex="1" parent="1">
          <mxGeometry x="1860" y="864" width="120" height="60" as="geometry" />
        </mxCell>
        <mxCell id="lZ0gh5wrKH4DqTvYVH8m-76" value="Modificar región" style="ellipse;whiteSpace=wrap;html=1;" vertex="1" parent="1">
          <mxGeometry x="2060" y="824" width="120" height="60" as="geometry" />
        </mxCell>
        <mxCell id="lZ0gh5wrKH4DqTvYVH8m-77" value="Eliminar región" style="ellipse;whiteSpace=wrap;html=1;" vertex="1" parent="1">
          <mxGeometry x="2060" y="904" width="120" height="60" as="geometry" />
        </mxCell>
        <mxCell id="lZ0gh5wrKH4DqTvYVH8m-78" value="Registrar declaración de stock" style="ellipse;whiteSpace=wrap;html=1;" vertex="1" parent="1">
          <mxGeometry x="1860" y="984" width="120" height="60" as="geometry" />
        </mxCell>
        <mxCell id="lZ0gh5wrKH4DqTvYVH8m-79" style="edgeStyle=orthogonalEdgeStyle;rounded=0;orthogonalLoop=1;jettySize=auto;html=1;" edge="1" parent="1" source="lZ0gh5wrKH4DqTvYVH8m-81" target="lZ0gh5wrKH4DqTvYVH8m-78">
          <mxGeometry relative="1" as="geometry" />
        </mxCell>
        <mxCell id="lZ0gh5wrKH4DqTvYVH8m-80" value="&amp;lt;extend&amp;gt;" style="edgeLabel;html=1;align=center;verticalAlign=middle;resizable=0;points=[];" connectable="0" vertex="1" parent="lZ0gh5wrKH4DqTvYVH8m-79">
          <mxGeometry x="-0.0472" y="3" relative="1" as="geometry">
            <mxPoint as="offset" />
          </mxGeometry>
        </mxCell>
        <mxCell id="lZ0gh5wrKH4DqTvYVH8m-81" value="Modificar declaración de stock" style="ellipse;whiteSpace=wrap;html=1;" vertex="1" parent="1">
          <mxGeometry x="2060" y="984" width="120" height="60" as="geometry" />
        </mxCell>
        <mxCell id="lZ0gh5wrKH4DqTvYVH8m-82" value="Registrar contrato" style="ellipse;whiteSpace=wrap;html=1;" vertex="1" parent="1">
          <mxGeometry x="1860" y="1328" width="120" height="60" as="geometry" />
        </mxCell>
        <mxCell id="lZ0gh5wrKH4DqTvYVH8m-83" value="Modificar contrato" style="ellipse;whiteSpace=wrap;html=1;" vertex="1" parent="1">
          <mxGeometry x="2060" y="1288" width="120" height="60" as="geometry" />
        </mxCell>
        <mxCell id="lZ0gh5wrKH4DqTvYVH8m-84" value="Eliminar contrato" style="ellipse;whiteSpace=wrap;html=1;" vertex="1" parent="1">
          <mxGeometry x="2060" y="1368" width="120" height="60" as="geometry" />
        </mxCell>
        <mxCell id="lZ0gh5wrKH4DqTvYVH8m-85" value="Registrar empresa" style="ellipse;whiteSpace=wrap;html=1;" vertex="1" parent="1">
          <mxGeometry x="1860" y="1484" width="120" height="60" as="geometry" />
        </mxCell>
        <mxCell id="lZ0gh5wrKH4DqTvYVH8m-86" value="Modificar empresa" style="ellipse;whiteSpace=wrap;html=1;" vertex="1" parent="1">
          <mxGeometry x="2060" y="1444" width="120" height="60" as="geometry" />
        </mxCell>
        <mxCell id="lZ0gh5wrKH4DqTvYVH8m-87" value="Eliminar empresa" style="ellipse;whiteSpace=wrap;html=1;" vertex="1" parent="1">
          <mxGeometry x="2060" y="1524" width="120" height="60" as="geometry" />
        </mxCell>
        <mxCell id="lZ0gh5wrKH4DqTvYVH8m-88" value="" style="rounded=0;whiteSpace=wrap;html=1;fillColor=none;dashed=1;" vertex="1" parent="1">
          <mxGeometry x="1200" y="1330" width="520" height="192" as="geometry" />
        </mxCell>
        <mxCell id="lZ0gh5wrKH4DqTvYVH8m-89" value="Registrar usuario" style="ellipse;whiteSpace=wrap;html=1;" vertex="1" parent="1">
          <mxGeometry x="1300" y="1392" width="120" height="60" as="geometry" />
        </mxCell>
        <mxCell id="lZ0gh5wrKH4DqTvYVH8m-90" value="Modificar usuario" style="ellipse;whiteSpace=wrap;html=1;" vertex="1" parent="1">
          <mxGeometry x="1500" y="1352" width="120" height="60" as="geometry" />
        </mxCell>
        <mxCell id="lZ0gh5wrKH4DqTvYVH8m-91" value="Eliminar usuario" style="ellipse;whiteSpace=wrap;html=1;" vertex="1" parent="1">
          <mxGeometry x="1500" y="1432" width="120" height="60" as="geometry" />
        </mxCell>
        <mxCell id="lZ0gh5wrKH4DqTvYVH8m-92" value="Administrativo" style="shape=umlActor;verticalLabelPosition=bottom;verticalAlign=top;html=1;outlineConnect=0;" vertex="1" parent="1">
          <mxGeometry x="1000" y="950" width="30" height="60" as="geometry" />
        </mxCell>
        <mxCell id="lZ0gh5wrKH4DqTvYVH8m-109" value="Gerente" style="shape=umlActor;verticalLabelPosition=bottom;verticalAlign=top;html=1;outlineConnect=0;" vertex="1" parent="1">
          <mxGeometry x="1000" y="1328" width="30" height="60" as="geometry" />
        </mxCell>
        <mxCell id="lZ0gh5wrKH4DqTvYVH8m-110" style="rounded=0;orthogonalLoop=1;jettySize=auto;html=1;entryX=1;entryY=0.5;entryDx=0;entryDy=0;exitX=0;exitY=0.5;exitDx=0;exitDy=0;" edge="1" parent="1">
          <mxGeometry relative="1" as="geometry">
            <mxPoint x="2060" y="694" as="sourcePoint" />
            <mxPoint x="1980" y="734" as="targetPoint" />
          </mxGeometry>
        </mxCell>
        <mxCell id="lZ0gh5wrKH4DqTvYVH8m-111" value="&amp;lt;extend&amp;gt;" style="edgeLabel;html=1;align=center;verticalAlign=middle;resizable=0;points=[];" connectable="0" vertex="1" parent="lZ0gh5wrKH4DqTvYVH8m-110">
          <mxGeometry x="-0.027" relative="1" as="geometry">
            <mxPoint as="offset" />
          </mxGeometry>
        </mxCell>
        <mxCell id="lZ0gh5wrKH4DqTvYVH8m-112" style="rounded=0;orthogonalLoop=1;jettySize=auto;html=1;entryX=1;entryY=0.5;entryDx=0;entryDy=0;exitX=0;exitY=0.5;exitDx=0;exitDy=0;" edge="1" parent="1">
          <mxGeometry relative="1" as="geometry">
            <mxPoint x="2060" y="774" as="sourcePoint" />
            <mxPoint x="1980" y="734" as="targetPoint" />
          </mxGeometry>
        </mxCell>
        <mxCell id="lZ0gh5wrKH4DqTvYVH8m-113" value="&amp;lt;extend&amp;gt;" style="edgeLabel;html=1;align=center;verticalAlign=middle;resizable=0;points=[];" connectable="0" vertex="1" parent="lZ0gh5wrKH4DqTvYVH8m-112">
          <mxGeometry x="-0.0781" y="-1" relative="1" as="geometry">
            <mxPoint y="1" as="offset" />
          </mxGeometry>
        </mxCell>
        <mxCell id="lZ0gh5wrKH4DqTvYVH8m-114" style="rounded=0;orthogonalLoop=1;jettySize=auto;html=1;entryX=1;entryY=0.5;entryDx=0;entryDy=0;exitX=0;exitY=0.5;exitDx=0;exitDy=0;" edge="1" parent="1">
          <mxGeometry relative="1" as="geometry">
            <mxPoint x="2060" y="854" as="sourcePoint" />
            <mxPoint x="1980" y="894" as="targetPoint" />
          </mxGeometry>
        </mxCell>
        <mxCell id="lZ0gh5wrKH4DqTvYVH8m-115" value="&amp;lt;extend&amp;gt;" style="edgeLabel;html=1;align=center;verticalAlign=middle;resizable=0;points=[];" connectable="0" vertex="1" parent="lZ0gh5wrKH4DqTvYVH8m-114">
          <mxGeometry x="-0.153" y="-3" relative="1" as="geometry">
            <mxPoint as="offset" />
          </mxGeometry>
        </mxCell>
        <mxCell id="lZ0gh5wrKH4DqTvYVH8m-116" style="rounded=0;orthogonalLoop=1;jettySize=auto;html=1;entryX=1;entryY=0.5;entryDx=0;entryDy=0;exitX=0;exitY=0.5;exitDx=0;exitDy=0;" edge="1" parent="1">
          <mxGeometry relative="1" as="geometry">
            <mxPoint x="2060" y="934" as="sourcePoint" />
            <mxPoint x="1980" y="894" as="targetPoint" />
          </mxGeometry>
        </mxCell>
        <mxCell id="lZ0gh5wrKH4DqTvYVH8m-117" value="&amp;lt;extend&amp;gt;" style="edgeLabel;html=1;align=center;verticalAlign=middle;resizable=0;points=[];" connectable="0" vertex="1" parent="lZ0gh5wrKH4DqTvYVH8m-116">
          <mxGeometry x="-0.0115" y="-2" relative="1" as="geometry">
            <mxPoint y="1" as="offset" />
          </mxGeometry>
        </mxCell>
        <mxCell id="lZ0gh5wrKH4DqTvYVH8m-118" style="rounded=0;orthogonalLoop=1;jettySize=auto;html=1;entryX=1;entryY=0.5;entryDx=0;entryDy=0;exitX=0;exitY=0.5;exitDx=0;exitDy=0;" edge="1" parent="1">
          <mxGeometry relative="1" as="geometry">
            <mxPoint x="2060" y="1318" as="sourcePoint" />
            <mxPoint x="1980" y="1358" as="targetPoint" />
          </mxGeometry>
        </mxCell>
        <mxCell id="lZ0gh5wrKH4DqTvYVH8m-119" value="&amp;lt;extend&amp;gt;" style="edgeLabel;html=1;align=center;verticalAlign=middle;resizable=0;points=[];" connectable="0" vertex="1" parent="lZ0gh5wrKH4DqTvYVH8m-118">
          <mxGeometry x="-0.03" relative="1" as="geometry">
            <mxPoint as="offset" />
          </mxGeometry>
        </mxCell>
        <mxCell id="lZ0gh5wrKH4DqTvYVH8m-120" style="rounded=0;orthogonalLoop=1;jettySize=auto;html=1;entryX=1;entryY=0.5;entryDx=0;entryDy=0;exitX=0;exitY=0.5;exitDx=0;exitDy=0;" edge="1" parent="1">
          <mxGeometry relative="1" as="geometry">
            <mxPoint x="2060" y="1398" as="sourcePoint" />
            <mxPoint x="1980" y="1358" as="targetPoint" />
          </mxGeometry>
        </mxCell>
        <mxCell id="lZ0gh5wrKH4DqTvYVH8m-121" value="&amp;lt;extend&amp;gt;" style="edgeLabel;html=1;align=center;verticalAlign=middle;resizable=0;points=[];" connectable="0" vertex="1" parent="lZ0gh5wrKH4DqTvYVH8m-120">
          <mxGeometry x="-0.053" y="2" relative="1" as="geometry">
            <mxPoint as="offset" />
          </mxGeometry>
        </mxCell>
        <mxCell id="lZ0gh5wrKH4DqTvYVH8m-122" style="rounded=0;orthogonalLoop=1;jettySize=auto;html=1;entryX=1;entryY=0.5;entryDx=0;entryDy=0;exitX=0;exitY=0.5;exitDx=0;exitDy=0;" edge="1" parent="1">
          <mxGeometry relative="1" as="geometry">
            <mxPoint x="2060" y="1474" as="sourcePoint" />
            <mxPoint x="1980" y="1514" as="targetPoint" />
          </mxGeometry>
        </mxCell>
        <mxCell id="lZ0gh5wrKH4DqTvYVH8m-123" value="&amp;lt;extend&amp;gt;" style="edgeLabel;html=1;align=center;verticalAlign=middle;resizable=0;points=[];" connectable="0" vertex="1" parent="lZ0gh5wrKH4DqTvYVH8m-122">
          <mxGeometry x="-0.1085" y="3" relative="1" as="geometry">
            <mxPoint as="offset" />
          </mxGeometry>
        </mxCell>
        <mxCell id="lZ0gh5wrKH4DqTvYVH8m-124" style="rounded=0;orthogonalLoop=1;jettySize=auto;html=1;entryX=1;entryY=0.5;entryDx=0;entryDy=0;exitX=0;exitY=0.5;exitDx=0;exitDy=0;" edge="1" parent="1">
          <mxGeometry relative="1" as="geometry">
            <mxPoint x="2060" y="1554" as="sourcePoint" />
            <mxPoint x="1980" y="1514" as="targetPoint" />
          </mxGeometry>
        </mxCell>
        <mxCell id="lZ0gh5wrKH4DqTvYVH8m-125" value="&amp;lt;extend&amp;gt;" style="edgeLabel;html=1;align=center;verticalAlign=middle;resizable=0;points=[];" connectable="0" vertex="1" parent="lZ0gh5wrKH4DqTvYVH8m-124">
          <mxGeometry x="-0.0337" y="-3" relative="1" as="geometry">
            <mxPoint as="offset" />
          </mxGeometry>
        </mxCell>
        <mxCell id="lZ0gh5wrKH4DqTvYVH8m-126" style="rounded=0;orthogonalLoop=1;jettySize=auto;html=1;entryX=1;entryY=0.5;entryDx=0;entryDy=0;exitX=0;exitY=0.5;exitDx=0;exitDy=0;" edge="1" parent="1">
          <mxGeometry relative="1" as="geometry">
            <mxPoint x="1500" y="1382" as="sourcePoint" />
            <mxPoint x="1420" y="1422" as="targetPoint" />
          </mxGeometry>
        </mxCell>
        <mxCell id="lZ0gh5wrKH4DqTvYVH8m-127" value="&amp;lt;extend&amp;gt;" style="edgeLabel;html=1;align=center;verticalAlign=middle;resizable=0;points=[];" connectable="0" vertex="1" parent="lZ0gh5wrKH4DqTvYVH8m-126">
          <mxGeometry x="-0.0937" y="1" relative="1" as="geometry">
            <mxPoint as="offset" />
          </mxGeometry>
        </mxCell>
        <mxCell id="lZ0gh5wrKH4DqTvYVH8m-128" style="rounded=0;orthogonalLoop=1;jettySize=auto;html=1;entryX=1;entryY=0.5;entryDx=0;entryDy=0;exitX=0;exitY=0.5;exitDx=0;exitDy=0;" edge="1" parent="1">
          <mxGeometry relative="1" as="geometry">
            <mxPoint x="1500" y="1462" as="sourcePoint" />
            <mxPoint x="1420" y="1422" as="targetPoint" />
          </mxGeometry>
        </mxCell>
        <mxCell id="lZ0gh5wrKH4DqTvYVH8m-129" value="&amp;lt;extend&amp;gt;" style="edgeLabel;html=1;align=center;verticalAlign=middle;resizable=0;points=[];" connectable="0" vertex="1" parent="lZ0gh5wrKH4DqTvYVH8m-128">
          <mxGeometry x="-0.1448" relative="1" as="geometry">
            <mxPoint y="1" as="offset" />
          </mxGeometry>
        </mxCell>
        <mxCell id="lZ0gh5wrKH4DqTvYVH8m-130" value="Sistema" style="text;html=1;align=center;verticalAlign=middle;whiteSpace=wrap;rounded=0;" vertex="1" parent="1">
          <mxGeometry x="2240" y="300" width="60" height="30" as="geometry" />
        </mxCell>
        <mxCell id="lZ0gh5wrKH4DqTvYVH8m-131" value="Subsistema de Ingresos" style="text;html=1;align=center;verticalAlign=middle;whiteSpace=wrap;rounded=0;" vertex="1" parent="1">
          <mxGeometry x="1570" y="900" width="150" height="30" as="geometry" />
        </mxCell>
        <mxCell id="lZ0gh5wrKH4DqTvYVH8m-132" value="Subsistema de Egresos&lt;span style=&quot;color: rgba(0, 0, 0, 0); font-family: monospace; font-size: 0px; text-align: start; text-wrap: nowrap;&quot;&gt;%3CmxGraphModel%3E%3Croot%3E%3CmxCell%20id%3D%220%22%2F%3E%3CmxCell%20id%3D%221%22%20parent%3D%220%22%2F%3E%3CmxCell%20id%3D%222%22%20value%3D%22Subsistema%20de%20Ingresos%22%20style%3D%22text%3Bhtml%3D1%3Balign%3Dcenter%3BverticalAlign%3Dmiddle%3BwhiteSpace%3Dwrap%3Brounded%3D0%3B%22%20vertex%3D%221%22%20parent%3D%221%22%3E%3CmxGeometry%20x%3D%22550%22%20y%3D%22750%22%20width%3D%22150%22%20height%3D%2230%22%20as%3D%22geometry%22%2F%3E%3C%2FmxCell%3E%3C%2Froot%3E%3C%2FmxGraphModel%3E&lt;/span&gt;" style="text;html=1;align=center;verticalAlign=middle;whiteSpace=wrap;rounded=0;" vertex="1" parent="1">
          <mxGeometry x="1570" y="1270" width="150" height="30" as="geometry" />
        </mxCell>
        <mxCell id="lZ0gh5wrKH4DqTvYVH8m-133" value="Subsistema de Almacenes" style="text;html=1;align=center;verticalAlign=middle;whiteSpace=wrap;rounded=0;" vertex="1" parent="1">
          <mxGeometry x="2130" y="1204" width="150" height="30" as="geometry" />
        </mxCell>
        <mxCell id="lZ0gh5wrKH4DqTvYVH8m-134" value="Subsistema de Contratos" style="text;html=1;align=center;verticalAlign=middle;whiteSpace=wrap;rounded=0;" vertex="1" parent="1">
          <mxGeometry x="2130" y="1840" width="150" height="30" as="geometry" />
        </mxCell>
        <mxCell id="lZ0gh5wrKH4DqTvYVH8m-135" value="Subsistema de Usuarios" style="text;html=1;align=center;verticalAlign=middle;whiteSpace=wrap;rounded=0;" vertex="1" parent="1">
          <mxGeometry x="1570" y="1492" width="150" height="30" as="geometry" />
        </mxCell>
        <mxCell id="lZ0gh5wrKH4DqTvYVH8m-136" value="Registrar granos" style="ellipse;whiteSpace=wrap;html=1;" vertex="1" parent="1">
          <mxGeometry x="1860" y="380" width="120" height="60" as="geometry" />
        </mxCell>
        <mxCell id="lZ0gh5wrKH4DqTvYVH8m-137" value="Buscar contrato" style="ellipse;whiteSpace=wrap;html=1;" vertex="1" parent="1">
          <mxGeometry x="1860" y="1644" width="120" height="60" as="geometry" />
        </mxCell>
        <mxCell id="lZ0gh5wrKH4DqTvYVH8m-147" value="Filtrar búsqueda" style="ellipse;whiteSpace=wrap;html=1;" vertex="1" parent="1">
          <mxGeometry x="2060" y="1604" width="120" height="60" as="geometry" />
        </mxCell>
        <mxCell id="lZ0gh5wrKH4DqTvYVH8m-210" style="rounded=0;orthogonalLoop=1;jettySize=auto;html=1;entryX=1;entryY=0.5;entryDx=0;entryDy=0;exitX=0;exitY=0.5;exitDx=0;exitDy=0;" edge="1" parent="1" source="lZ0gh5wrKH4DqTvYVH8m-148" target="lZ0gh5wrKH4DqTvYVH8m-203">
          <mxGeometry relative="1" as="geometry" />
        </mxCell>
        <mxCell id="lZ0gh5wrKH4DqTvYVH8m-211" value="&amp;lt;extend&amp;gt;" style="edgeLabel;html=1;align=center;verticalAlign=middle;resizable=0;points=[];" connectable="0" vertex="1" parent="lZ0gh5wrKH4DqTvYVH8m-210">
          <mxGeometry x="0.0719" y="3" relative="1" as="geometry">
            <mxPoint as="offset" />
          </mxGeometry>
        </mxCell>
        <mxCell id="lZ0gh5wrKH4DqTvYVH8m-148" value="Generar informe" style="ellipse;whiteSpace=wrap;html=1;" vertex="1" parent="1">
          <mxGeometry x="2060" y="1684" width="120" height="60" as="geometry" />
        </mxCell>
        <mxCell id="lZ0gh5wrKH4DqTvYVH8m-149" style="rounded=0;orthogonalLoop=1;jettySize=auto;html=1;entryX=1;entryY=0.5;entryDx=0;entryDy=0;exitX=0;exitY=0.5;exitDx=0;exitDy=0;" edge="1" parent="1" target="lZ0gh5wrKH4DqTvYVH8m-137">
          <mxGeometry relative="1" as="geometry">
            <mxPoint x="2060" y="1634" as="sourcePoint" />
            <mxPoint x="1980" y="1674" as="targetPoint" />
          </mxGeometry>
        </mxCell>
        <mxCell id="lZ0gh5wrKH4DqTvYVH8m-150" value="&amp;lt;extend&amp;gt;" style="edgeLabel;html=1;align=center;verticalAlign=middle;resizable=0;points=[];" connectable="0" vertex="1" parent="lZ0gh5wrKH4DqTvYVH8m-149">
          <mxGeometry x="-0.1085" y="3" relative="1" as="geometry">
            <mxPoint as="offset" />
          </mxGeometry>
        </mxCell>
        <mxCell id="lZ0gh5wrKH4DqTvYVH8m-151" style="rounded=0;orthogonalLoop=1;jettySize=auto;html=1;entryX=1;entryY=0.5;entryDx=0;entryDy=0;exitX=0;exitY=0.5;exitDx=0;exitDy=0;" edge="1" parent="1" target="lZ0gh5wrKH4DqTvYVH8m-137">
          <mxGeometry relative="1" as="geometry">
            <mxPoint x="2060" y="1714" as="sourcePoint" />
            <mxPoint x="1980" y="1674" as="targetPoint" />
          </mxGeometry>
        </mxCell>
        <mxCell id="lZ0gh5wrKH4DqTvYVH8m-152" value="&amp;lt;extend&amp;gt;" style="edgeLabel;html=1;align=center;verticalAlign=middle;resizable=0;points=[];" connectable="0" vertex="1" parent="lZ0gh5wrKH4DqTvYVH8m-151">
          <mxGeometry x="-0.0337" y="-3" relative="1" as="geometry">
            <mxPoint as="offset" />
          </mxGeometry>
        </mxCell>
        <mxCell id="lZ0gh5wrKH4DqTvYVH8m-153" value="Buscar almacén" style="ellipse;whiteSpace=wrap;html=1;" vertex="1" parent="1">
          <mxGeometry x="1860" y="1099" width="120" height="60" as="geometry" />
        </mxCell>
        <mxCell id="lZ0gh5wrKH4DqTvYVH8m-154" value="Filtrar búsqueda" style="ellipse;whiteSpace=wrap;html=1;" vertex="1" parent="1">
          <mxGeometry x="2060" y="1059" width="120" height="60" as="geometry" />
        </mxCell>
        <mxCell id="lZ0gh5wrKH4DqTvYVH8m-155" value="Generar informe" style="ellipse;whiteSpace=wrap;html=1;" vertex="1" parent="1">
          <mxGeometry x="2060" y="1139" width="120" height="60" as="geometry" />
        </mxCell>
        <mxCell id="lZ0gh5wrKH4DqTvYVH8m-156" style="rounded=0;orthogonalLoop=1;jettySize=auto;html=1;entryX=1;entryY=0.5;entryDx=0;entryDy=0;exitX=0;exitY=0.5;exitDx=0;exitDy=0;" edge="1" parent="1" target="lZ0gh5wrKH4DqTvYVH8m-153">
          <mxGeometry relative="1" as="geometry">
            <mxPoint x="2060" y="1089" as="sourcePoint" />
            <mxPoint x="1980" y="1129" as="targetPoint" />
          </mxGeometry>
        </mxCell>
        <mxCell id="lZ0gh5wrKH4DqTvYVH8m-157" value="&amp;lt;extend&amp;gt;" style="edgeLabel;html=1;align=center;verticalAlign=middle;resizable=0;points=[];" connectable="0" vertex="1" parent="lZ0gh5wrKH4DqTvYVH8m-156">
          <mxGeometry x="-0.1085" y="3" relative="1" as="geometry">
            <mxPoint as="offset" />
          </mxGeometry>
        </mxCell>
        <mxCell id="lZ0gh5wrKH4DqTvYVH8m-158" style="rounded=0;orthogonalLoop=1;jettySize=auto;html=1;entryX=1;entryY=0.5;entryDx=0;entryDy=0;exitX=0;exitY=0.5;exitDx=0;exitDy=0;" edge="1" parent="1" target="lZ0gh5wrKH4DqTvYVH8m-153">
          <mxGeometry relative="1" as="geometry">
            <mxPoint x="2060" y="1169" as="sourcePoint" />
            <mxPoint x="1980" y="1129" as="targetPoint" />
          </mxGeometry>
        </mxCell>
        <mxCell id="lZ0gh5wrKH4DqTvYVH8m-159" value="&amp;lt;extend&amp;gt;" style="edgeLabel;html=1;align=center;verticalAlign=middle;resizable=0;points=[];" connectable="0" vertex="1" parent="lZ0gh5wrKH4DqTvYVH8m-158">
          <mxGeometry x="-0.0337" y="-3" relative="1" as="geometry">
            <mxPoint as="offset" />
          </mxGeometry>
        </mxCell>
        <mxCell id="lZ0gh5wrKH4DqTvYVH8m-160" value="Buscar egreso" style="ellipse;whiteSpace=wrap;html=1;" vertex="1" parent="1">
          <mxGeometry x="1300" y="1170" width="120" height="60" as="geometry" />
        </mxCell>
        <mxCell id="lZ0gh5wrKH4DqTvYVH8m-161" value="Filtrar búsqueda" style="ellipse;whiteSpace=wrap;html=1;" vertex="1" parent="1">
          <mxGeometry x="1500" y="1130" width="120" height="60" as="geometry" />
        </mxCell>
        <mxCell id="lZ0gh5wrKH4DqTvYVH8m-162" value="Generar informe" style="ellipse;whiteSpace=wrap;html=1;" vertex="1" parent="1">
          <mxGeometry x="1500" y="1210" width="120" height="60" as="geometry" />
        </mxCell>
        <mxCell id="lZ0gh5wrKH4DqTvYVH8m-163" style="rounded=0;orthogonalLoop=1;jettySize=auto;html=1;entryX=1;entryY=0.5;entryDx=0;entryDy=0;exitX=0;exitY=0.5;exitDx=0;exitDy=0;" edge="1" parent="1" target="lZ0gh5wrKH4DqTvYVH8m-160">
          <mxGeometry relative="1" as="geometry">
            <mxPoint x="1500" y="1160" as="sourcePoint" />
            <mxPoint x="1420" y="1200" as="targetPoint" />
          </mxGeometry>
        </mxCell>
        <mxCell id="lZ0gh5wrKH4DqTvYVH8m-164" value="&amp;lt;extend&amp;gt;" style="edgeLabel;html=1;align=center;verticalAlign=middle;resizable=0;points=[];" connectable="0" vertex="1" parent="lZ0gh5wrKH4DqTvYVH8m-163">
          <mxGeometry x="-0.1085" y="3" relative="1" as="geometry">
            <mxPoint as="offset" />
          </mxGeometry>
        </mxCell>
        <mxCell id="lZ0gh5wrKH4DqTvYVH8m-165" style="rounded=0;orthogonalLoop=1;jettySize=auto;html=1;entryX=1;entryY=0.5;entryDx=0;entryDy=0;exitX=0;exitY=0.5;exitDx=0;exitDy=0;" edge="1" parent="1" target="lZ0gh5wrKH4DqTvYVH8m-160">
          <mxGeometry relative="1" as="geometry">
            <mxPoint x="1500" y="1240" as="sourcePoint" />
            <mxPoint x="1420" y="1200" as="targetPoint" />
          </mxGeometry>
        </mxCell>
        <mxCell id="lZ0gh5wrKH4DqTvYVH8m-166" value="&amp;lt;extend&amp;gt;" style="edgeLabel;html=1;align=center;verticalAlign=middle;resizable=0;points=[];" connectable="0" vertex="1" parent="lZ0gh5wrKH4DqTvYVH8m-165">
          <mxGeometry x="-0.0337" y="-3" relative="1" as="geometry">
            <mxPoint as="offset" />
          </mxGeometry>
        </mxCell>
        <mxCell id="lZ0gh5wrKH4DqTvYVH8m-167" value="Buscar ingreso" style="ellipse;whiteSpace=wrap;html=1;" vertex="1" parent="1">
          <mxGeometry x="1300" y="800" width="120" height="60" as="geometry" />
        </mxCell>
        <mxCell id="lZ0gh5wrKH4DqTvYVH8m-168" value="Filtrar búsqueda" style="ellipse;whiteSpace=wrap;html=1;" vertex="1" parent="1">
          <mxGeometry x="1500" y="760" width="120" height="60" as="geometry" />
        </mxCell>
        <mxCell id="lZ0gh5wrKH4DqTvYVH8m-169" value="Generar informe" style="ellipse;whiteSpace=wrap;html=1;" vertex="1" parent="1">
          <mxGeometry x="1500" y="840" width="120" height="60" as="geometry" />
        </mxCell>
        <mxCell id="lZ0gh5wrKH4DqTvYVH8m-170" style="rounded=0;orthogonalLoop=1;jettySize=auto;html=1;entryX=1;entryY=0.5;entryDx=0;entryDy=0;exitX=0;exitY=0.5;exitDx=0;exitDy=0;" edge="1" parent="1" target="lZ0gh5wrKH4DqTvYVH8m-167">
          <mxGeometry relative="1" as="geometry">
            <mxPoint x="1500" y="790" as="sourcePoint" />
            <mxPoint x="1420" y="830" as="targetPoint" />
          </mxGeometry>
        </mxCell>
        <mxCell id="lZ0gh5wrKH4DqTvYVH8m-171" value="&amp;lt;extend&amp;gt;" style="edgeLabel;html=1;align=center;verticalAlign=middle;resizable=0;points=[];" connectable="0" vertex="1" parent="lZ0gh5wrKH4DqTvYVH8m-170">
          <mxGeometry x="-0.1085" y="3" relative="1" as="geometry">
            <mxPoint as="offset" />
          </mxGeometry>
        </mxCell>
        <mxCell id="lZ0gh5wrKH4DqTvYVH8m-172" style="rounded=0;orthogonalLoop=1;jettySize=auto;html=1;entryX=1;entryY=0.5;entryDx=0;entryDy=0;exitX=0;exitY=0.5;exitDx=0;exitDy=0;" edge="1" parent="1" target="lZ0gh5wrKH4DqTvYVH8m-167">
          <mxGeometry relative="1" as="geometry">
            <mxPoint x="1500" y="870" as="sourcePoint" />
            <mxPoint x="1420" y="830" as="targetPoint" />
          </mxGeometry>
        </mxCell>
        <mxCell id="lZ0gh5wrKH4DqTvYVH8m-173" value="&amp;lt;extend&amp;gt;" style="edgeLabel;html=1;align=center;verticalAlign=middle;resizable=0;points=[];" connectable="0" vertex="1" parent="lZ0gh5wrKH4DqTvYVH8m-172">
          <mxGeometry x="-0.0337" y="-3" relative="1" as="geometry">
            <mxPoint as="offset" />
          </mxGeometry>
        </mxCell>
        <mxCell id="lZ0gh5wrKH4DqTvYVH8m-174" value="El Encargado de Logística tiene acceso total a todos los casos de uso" style="text;html=1;align=center;verticalAlign=middle;whiteSpace=wrap;rounded=0;" vertex="1" parent="1">
          <mxGeometry x="900" y="560" width="250" height="30" as="geometry" />
        </mxCell>
        <mxCell id="lZ0gh5wrKH4DqTvYVH8m-175" value="Encargado de&lt;div&gt;&amp;nbsp;Logísitica&lt;/div&gt;" style="shape=umlActor;verticalLabelPosition=bottom;verticalAlign=top;html=1;outlineConnect=0;" vertex="1" parent="1">
          <mxGeometry x="1010" y="604" width="30" height="60" as="geometry" />
        </mxCell>
        <mxCell id="lZ0gh5wrKH4DqTvYVH8m-176" style="rounded=0;orthogonalLoop=1;jettySize=auto;html=1;exitX=1;exitY=0.3333333333333333;exitDx=0;exitDy=0;exitPerimeter=0;entryX=0;entryY=0.5;entryDx=0;entryDy=0;" edge="1" parent="1" source="lZ0gh5wrKH4DqTvYVH8m-92" target="lZ0gh5wrKH4DqTvYVH8m-59">
          <mxGeometry relative="1" as="geometry">
            <mxPoint x="620" y="740" as="sourcePoint" />
            <mxPoint x="100" y="660" as="targetPoint" />
          </mxGeometry>
        </mxCell>
        <mxCell id="lZ0gh5wrKH4DqTvYVH8m-177" style="rounded=0;orthogonalLoop=1;jettySize=auto;html=1;exitX=1;exitY=0.3333333333333333;exitDx=0;exitDy=0;exitPerimeter=0;entryX=0;entryY=0.5;entryDx=0;entryDy=0;" edge="1" parent="1" source="lZ0gh5wrKH4DqTvYVH8m-92" target="lZ0gh5wrKH4DqTvYVH8m-60">
          <mxGeometry relative="1" as="geometry">
            <mxPoint x="1040" y="980" as="sourcePoint" />
            <mxPoint x="1310" y="680" as="targetPoint" />
          </mxGeometry>
        </mxCell>
        <mxCell id="lZ0gh5wrKH4DqTvYVH8m-178" style="rounded=0;orthogonalLoop=1;jettySize=auto;html=1;exitX=1;exitY=0.3333333333333333;exitDx=0;exitDy=0;exitPerimeter=0;entryX=0;entryY=0.5;entryDx=0;entryDy=0;" edge="1" parent="1" source="lZ0gh5wrKH4DqTvYVH8m-92" target="lZ0gh5wrKH4DqTvYVH8m-62">
          <mxGeometry relative="1" as="geometry">
            <mxPoint x="1050" y="990" as="sourcePoint" />
            <mxPoint x="1320" y="690" as="targetPoint" />
          </mxGeometry>
        </mxCell>
        <mxCell id="lZ0gh5wrKH4DqTvYVH8m-179" style="rounded=0;orthogonalLoop=1;jettySize=auto;html=1;exitX=1;exitY=0.3333333333333333;exitDx=0;exitDy=0;exitPerimeter=0;entryX=0;entryY=0.5;entryDx=0;entryDy=0;" edge="1" parent="1" source="lZ0gh5wrKH4DqTvYVH8m-92" target="lZ0gh5wrKH4DqTvYVH8m-63">
          <mxGeometry relative="1" as="geometry">
            <mxPoint x="1060" y="1000" as="sourcePoint" />
            <mxPoint x="1330" y="700" as="targetPoint" />
          </mxGeometry>
        </mxCell>
        <mxCell id="lZ0gh5wrKH4DqTvYVH8m-180" style="rounded=0;orthogonalLoop=1;jettySize=auto;html=1;exitX=1;exitY=0.3333333333333333;exitDx=0;exitDy=0;exitPerimeter=0;entryX=0;entryY=0.5;entryDx=0;entryDy=0;" edge="1" parent="1" source="lZ0gh5wrKH4DqTvYVH8m-109" target="lZ0gh5wrKH4DqTvYVH8m-167">
          <mxGeometry relative="1" as="geometry">
            <mxPoint x="1070" y="1010" as="sourcePoint" />
            <mxPoint x="1340" y="710" as="targetPoint" />
          </mxGeometry>
        </mxCell>
        <mxCell id="lZ0gh5wrKH4DqTvYVH8m-181" style="rounded=0;orthogonalLoop=1;jettySize=auto;html=1;exitX=1;exitY=0.3333333333333333;exitDx=0;exitDy=0;exitPerimeter=0;entryX=0;entryY=0.5;entryDx=0;entryDy=0;" edge="1" parent="1" source="lZ0gh5wrKH4DqTvYVH8m-109" target="lZ0gh5wrKH4DqTvYVH8m-160">
          <mxGeometry relative="1" as="geometry">
            <mxPoint x="1040" y="1250" as="sourcePoint" />
            <mxPoint x="1310" y="840" as="targetPoint" />
          </mxGeometry>
        </mxCell>
        <mxCell id="lZ0gh5wrKH4DqTvYVH8m-182" style="rounded=0;orthogonalLoop=1;jettySize=auto;html=1;exitX=1;exitY=0.3333333333333333;exitDx=0;exitDy=0;exitPerimeter=0;entryX=0;entryY=0.5;entryDx=0;entryDy=0;" edge="1" parent="1" source="lZ0gh5wrKH4DqTvYVH8m-109" target="lZ0gh5wrKH4DqTvYVH8m-153">
          <mxGeometry relative="1" as="geometry">
            <mxPoint x="1050" y="1260" as="sourcePoint" />
            <mxPoint x="1320" y="850" as="targetPoint" />
          </mxGeometry>
        </mxCell>
        <mxCell id="lZ0gh5wrKH4DqTvYVH8m-183" style="rounded=0;orthogonalLoop=1;jettySize=auto;html=1;exitX=1;exitY=0.3333333333333333;exitDx=0;exitDy=0;exitPerimeter=0;entryX=0;entryY=0.5;entryDx=0;entryDy=0;" edge="1" parent="1" source="lZ0gh5wrKH4DqTvYVH8m-109" target="lZ0gh5wrKH4DqTvYVH8m-137">
          <mxGeometry relative="1" as="geometry">
            <mxPoint x="1060" y="1270" as="sourcePoint" />
            <mxPoint x="1330" y="860" as="targetPoint" />
          </mxGeometry>
        </mxCell>
        <mxCell id="lZ0gh5wrKH4DqTvYVH8m-186" style="rounded=0;orthogonalLoop=1;jettySize=auto;html=1;exitX=1;exitY=0.5;exitDx=0;exitDy=0;entryX=0;entryY=0.5;entryDx=0;entryDy=0;" edge="1" parent="1" source="lZ0gh5wrKH4DqTvYVH8m-60" target="lZ0gh5wrKH4DqTvYVH8m-153">
          <mxGeometry relative="1" as="geometry">
            <mxPoint x="1070" y="1280" as="sourcePoint" />
            <mxPoint x="1340" y="870" as="targetPoint" />
            <Array as="points">
              <mxPoint x="1640" y="750" />
            </Array>
          </mxGeometry>
        </mxCell>
        <mxCell id="lZ0gh5wrKH4DqTvYVH8m-187" value="&amp;lt;include&amp;gt;" style="edgeLabel;html=1;align=center;verticalAlign=middle;resizable=0;points=[];" vertex="1" connectable="0" parent="1">
          <mxGeometry x="1520.0000116847264" y="749.9996550830001" as="geometry">
            <mxPoint x="-1" y="-3" as="offset" />
          </mxGeometry>
        </mxCell>
        <mxCell id="lZ0gh5wrKH4DqTvYVH8m-190" value="&amp;lt;include&amp;gt;" style="edgeLabel;html=1;align=center;verticalAlign=middle;resizable=0;points=[];" vertex="1" connectable="0" parent="1">
          <mxGeometry x="1570.0000116847264" y="669.9996550830001" as="geometry" />
        </mxCell>
        <mxCell id="lZ0gh5wrKH4DqTvYVH8m-191" style="rounded=0;orthogonalLoop=1;jettySize=auto;html=1;exitX=1;exitY=0.5;exitDx=0;exitDy=0;entryX=0;entryY=0.5;entryDx=0;entryDy=0;" edge="1" parent="1" source="lZ0gh5wrKH4DqTvYVH8m-63" target="lZ0gh5wrKH4DqTvYVH8m-153">
          <mxGeometry relative="1" as="geometry">
            <mxPoint x="1440" y="1090" as="sourcePoint" />
            <mxPoint x="1880" y="1469" as="targetPoint" />
            <Array as="points">
              <mxPoint x="1580" y="1090" />
            </Array>
          </mxGeometry>
        </mxCell>
        <mxCell id="lZ0gh5wrKH4DqTvYVH8m-196" value="&amp;lt;include&amp;gt;" style="edgeLabel;html=1;align=center;verticalAlign=middle;resizable=0;points=[];" vertex="1" connectable="0" parent="lZ0gh5wrKH4DqTvYVH8m-191">
          <mxGeometry x="-0.6683" y="-2" relative="1" as="geometry">
            <mxPoint x="1" as="offset" />
          </mxGeometry>
        </mxCell>
        <mxCell id="lZ0gh5wrKH4DqTvYVH8m-192" style="rounded=0;orthogonalLoop=1;jettySize=auto;html=1;exitX=1;exitY=0.5;exitDx=0;exitDy=0;entryX=0;entryY=0.5;entryDx=0;entryDy=0;" edge="1" parent="1" source="lZ0gh5wrKH4DqTvYVH8m-62" target="lZ0gh5wrKH4DqTvYVH8m-153">
          <mxGeometry relative="1" as="geometry">
            <mxPoint x="1430" y="1100" as="sourcePoint" />
            <mxPoint x="1870" y="1139" as="targetPoint" />
            <Array as="points">
              <mxPoint x="1600" y="1010" />
            </Array>
          </mxGeometry>
        </mxCell>
        <mxCell id="lZ0gh5wrKH4DqTvYVH8m-194" value="&amp;lt;include&amp;gt;" style="edgeLabel;html=1;align=center;verticalAlign=middle;resizable=0;points=[];" vertex="1" connectable="0" parent="lZ0gh5wrKH4DqTvYVH8m-192">
          <mxGeometry x="-0.6051" y="3" relative="1" as="geometry">
            <mxPoint x="1" as="offset" />
          </mxGeometry>
        </mxCell>
        <mxCell id="lZ0gh5wrKH4DqTvYVH8m-193" style="rounded=0;orthogonalLoop=1;jettySize=auto;html=1;exitX=1;exitY=1;exitDx=0;exitDy=0;entryX=0;entryY=0.5;entryDx=0;entryDy=0;" edge="1" parent="1" source="lZ0gh5wrKH4DqTvYVH8m-62" target="lZ0gh5wrKH4DqTvYVH8m-137">
          <mxGeometry relative="1" as="geometry">
            <mxPoint x="1430" y="1020" as="sourcePoint" />
            <mxPoint x="1870" y="1139" as="targetPoint" />
            <Array as="points">
              <mxPoint x="1610" y="1050" />
            </Array>
          </mxGeometry>
        </mxCell>
        <mxCell id="lZ0gh5wrKH4DqTvYVH8m-195" value="&amp;lt;include&amp;gt;" style="edgeLabel;html=1;align=center;verticalAlign=middle;resizable=0;points=[];" vertex="1" connectable="0" parent="lZ0gh5wrKH4DqTvYVH8m-193">
          <mxGeometry x="-0.6133" relative="1" as="geometry">
            <mxPoint x="-52" y="-7" as="offset" />
          </mxGeometry>
        </mxCell>
        <mxCell id="lZ0gh5wrKH4DqTvYVH8m-197" style="rounded=0;orthogonalLoop=1;jettySize=auto;html=1;entryX=1;entryY=0.5;entryDx=0;entryDy=0;exitX=0;exitY=0.5;exitDx=0;exitDy=0;" edge="1" parent="1" source="lZ0gh5wrKH4DqTvYVH8m-199">
          <mxGeometry relative="1" as="geometry">
            <mxPoint x="1980" y="410" as="targetPoint" />
          </mxGeometry>
        </mxCell>
        <mxCell id="lZ0gh5wrKH4DqTvYVH8m-198" value="&amp;lt;extend&amp;gt;" style="edgeLabel;html=1;align=center;verticalAlign=middle;resizable=0;points=[];" connectable="0" vertex="1" parent="lZ0gh5wrKH4DqTvYVH8m-197">
          <mxGeometry x="-0.2937" y="-2" relative="1" as="geometry">
            <mxPoint x="-11" y="8" as="offset" />
          </mxGeometry>
        </mxCell>
        <mxCell id="lZ0gh5wrKH4DqTvYVH8m-199" value="Modificar grano" style="ellipse;whiteSpace=wrap;html=1;" vertex="1" parent="1">
          <mxGeometry x="2060" y="340" width="120" height="60" as="geometry" />
        </mxCell>
        <mxCell id="lZ0gh5wrKH4DqTvYVH8m-200" style="rounded=0;orthogonalLoop=1;jettySize=auto;html=1;entryX=1;entryY=0.5;entryDx=0;entryDy=0;exitX=0;exitY=0.5;exitDx=0;exitDy=0;" edge="1" parent="1" source="lZ0gh5wrKH4DqTvYVH8m-202">
          <mxGeometry relative="1" as="geometry">
            <mxPoint x="1980" y="410" as="targetPoint" />
          </mxGeometry>
        </mxCell>
        <mxCell id="lZ0gh5wrKH4DqTvYVH8m-201" value="&amp;lt;extend&amp;gt;" style="edgeLabel;html=1;align=center;verticalAlign=middle;resizable=0;points=[];" connectable="0" vertex="1" parent="lZ0gh5wrKH4DqTvYVH8m-200">
          <mxGeometry x="-0.1004" y="3" relative="1" as="geometry">
            <mxPoint as="offset" />
          </mxGeometry>
        </mxCell>
        <mxCell id="lZ0gh5wrKH4DqTvYVH8m-202" value="Eliminar grano" style="ellipse;whiteSpace=wrap;html=1;" vertex="1" parent="1">
          <mxGeometry x="2060" y="420" width="120" height="60" as="geometry" />
        </mxCell>
        <mxCell id="lZ0gh5wrKH4DqTvYVH8m-203" value="Buscar deuda" style="ellipse;whiteSpace=wrap;html=1;" vertex="1" parent="1">
          <mxGeometry x="1860" y="1730" width="120" height="60" as="geometry" />
        </mxCell>
        <mxCell id="lZ0gh5wrKH4DqTvYVH8m-204" value="Filtrar deuda" style="ellipse;whiteSpace=wrap;html=1;" vertex="1" parent="1">
          <mxGeometry x="2060" y="1766" width="120" height="60" as="geometry" />
        </mxCell>
        <mxCell id="lZ0gh5wrKH4DqTvYVH8m-206" style="rounded=0;orthogonalLoop=1;jettySize=auto;html=1;entryX=1;entryY=0.5;entryDx=0;entryDy=0;exitX=0;exitY=0.5;exitDx=0;exitDy=0;" edge="1" parent="1" source="lZ0gh5wrKH4DqTvYVH8m-204" target="lZ0gh5wrKH4DqTvYVH8m-203">
          <mxGeometry relative="1" as="geometry">
            <mxPoint x="2060" y="1720" as="sourcePoint" />
            <mxPoint x="1980" y="1760" as="targetPoint" />
          </mxGeometry>
        </mxCell>
        <mxCell id="lZ0gh5wrKH4DqTvYVH8m-207" value="&amp;lt;extend&amp;gt;" style="edgeLabel;html=1;align=center;verticalAlign=middle;resizable=0;points=[];" connectable="0" vertex="1" parent="lZ0gh5wrKH4DqTvYVH8m-206">
          <mxGeometry x="-0.1085" y="3" relative="1" as="geometry">
            <mxPoint as="offset" />
          </mxGeometry>
        </mxCell>
        <mxCell id="MsxnQjkOtoa7HXYsfpHn-4" value="" style="rounded=0;whiteSpace=wrap;html=1;fillColor=none;dashed=1;" vertex="1" parent="1">
          <mxGeometry x="3080" y="702" width="360" height="230" as="geometry" />
        </mxCell>
        <mxCell id="MsxnQjkOtoa7HXYsfpHn-9" value="Registrar ingreso" style="ellipse;whiteSpace=wrap;html=1;" vertex="1" parent="1">
          <mxGeometry x="3100" y="722" width="120" height="60" as="geometry" />
        </mxCell>
        <mxCell id="MsxnQjkOtoa7HXYsfpHn-10" value="Registrar egreso" style="ellipse;whiteSpace=wrap;html=1;" vertex="1" parent="1">
          <mxGeometry x="3100" y="972" width="120" height="60" as="geometry" />
        </mxCell>
        <mxCell id="MsxnQjkOtoa7HXYsfpHn-11" value="Registrar movimiento interno" style="ellipse;whiteSpace=wrap;html=1;" vertex="1" parent="1">
          <mxGeometry x="3100" y="1052" width="120" height="60" as="geometry" />
        </mxCell>
        <mxCell id="MsxnQjkOtoa7HXYsfpHn-13" value="Registrar silo" style="ellipse;whiteSpace=wrap;html=1;" vertex="1" parent="1">
          <mxGeometry x="3680" y="660" width="120" height="60" as="geometry" />
        </mxCell>
        <mxCell id="MsxnQjkOtoa7HXYsfpHn-16" value="Modificar silo" style="ellipse;whiteSpace=wrap;html=1;" vertex="1" parent="1">
          <mxGeometry x="3480" y="700" width="120" height="60" as="geometry" />
        </mxCell>
        <mxCell id="MsxnQjkOtoa7HXYsfpHn-20" value="Registrar campo" style="ellipse;whiteSpace=wrap;html=1;" vertex="1" parent="1">
          <mxGeometry x="3680" y="740" width="120" height="60" as="geometry" />
        </mxCell>
        <mxCell id="MsxnQjkOtoa7HXYsfpHn-21" value="Modificar campo" style="ellipse;whiteSpace=wrap;html=1;" vertex="1" parent="1">
          <mxGeometry x="3480" y="780" width="120" height="60" as="geometry" />
        </mxCell>
        <mxCell id="MsxnQjkOtoa7HXYsfpHn-23" value="Registrar región" style="ellipse;whiteSpace=wrap;html=1;" vertex="1" parent="1">
          <mxGeometry x="3680" y="820" width="120" height="60" as="geometry" />
        </mxCell>
        <mxCell id="MsxnQjkOtoa7HXYsfpHn-24" value="Modificar región" style="ellipse;whiteSpace=wrap;html=1;" vertex="1" parent="1">
          <mxGeometry x="3480" y="860" width="120" height="60" as="geometry" />
        </mxCell>
        <mxCell id="MsxnQjkOtoa7HXYsfpHn-26" value="Registrar declaración de stock" style="ellipse;whiteSpace=wrap;html=1;" vertex="1" parent="1">
          <mxGeometry x="3680" y="900" width="120" height="60" as="geometry" />
        </mxCell>
        <mxCell id="MsxnQjkOtoa7HXYsfpHn-29" value="Modificar declaración de stock" style="ellipse;whiteSpace=wrap;html=1;" vertex="1" parent="1">
          <mxGeometry x="3480" y="940" width="120" height="60" as="geometry" />
        </mxCell>
        <mxCell id="MsxnQjkOtoa7HXYsfpHn-30" value="Registrar contrato" style="ellipse;whiteSpace=wrap;html=1;" vertex="1" parent="1">
          <mxGeometry x="3680" y="1270" width="120" height="60" as="geometry" />
        </mxCell>
        <mxCell id="MsxnQjkOtoa7HXYsfpHn-31" value="Modificar contrato" style="ellipse;whiteSpace=wrap;html=1;" vertex="1" parent="1">
          <mxGeometry x="3480" y="1228" width="120" height="60" as="geometry" />
        </mxCell>
        <mxCell id="MsxnQjkOtoa7HXYsfpHn-33" value="Registrar empresa" style="ellipse;whiteSpace=wrap;html=1;" vertex="1" parent="1">
          <mxGeometry x="3680" y="1189" width="120" height="60" as="geometry" />
        </mxCell>
        <mxCell id="MsxnQjkOtoa7HXYsfpHn-34" value="Modificar empresa" style="ellipse;whiteSpace=wrap;html=1;" vertex="1" parent="1">
          <mxGeometry x="3480" y="1310" width="120" height="60" as="geometry" />
        </mxCell>
        <mxCell id="MsxnQjkOtoa7HXYsfpHn-36" value="" style="rounded=0;whiteSpace=wrap;html=1;fillColor=none;dashed=1;" vertex="1" parent="1">
          <mxGeometry x="3080" y="1282" width="360" height="192" as="geometry" />
        </mxCell>
        <mxCell id="MsxnQjkOtoa7HXYsfpHn-37" value="Registrar usuario" style="ellipse;whiteSpace=wrap;html=1;" vertex="1" parent="1">
          <mxGeometry x="3100" y="1344" width="120" height="60" as="geometry" />
        </mxCell>
        <mxCell id="MsxnQjkOtoa7HXYsfpHn-38" value="Modificar usuario" style="ellipse;whiteSpace=wrap;html=1;" vertex="1" parent="1">
          <mxGeometry x="3300" y="1304" width="120" height="60" as="geometry" />
        </mxCell>
        <mxCell id="MsxnQjkOtoa7HXYsfpHn-39" value="Eliminar usuario" style="ellipse;whiteSpace=wrap;html=1;" vertex="1" parent="1">
          <mxGeometry x="3300" y="1384" width="120" height="60" as="geometry" />
        </mxCell>
        <mxCell id="MsxnQjkOtoa7HXYsfpHn-40" value="Administrativo" style="shape=umlActor;verticalLabelPosition=bottom;verticalAlign=top;html=1;outlineConnect=0;" vertex="1" parent="1">
          <mxGeometry x="2910" y="1044" width="30" height="60" as="geometry" />
        </mxCell>
        <mxCell id="MsxnQjkOtoa7HXYsfpHn-41" value="Gerente" style="shape=umlActor;verticalLabelPosition=bottom;verticalAlign=top;html=1;outlineConnect=0;" vertex="1" parent="1">
          <mxGeometry x="2910" y="1310" width="30" height="60" as="geometry" />
        </mxCell>
        <mxCell id="MsxnQjkOtoa7HXYsfpHn-58" style="rounded=0;orthogonalLoop=1;jettySize=auto;html=1;entryX=1;entryY=0.5;entryDx=0;entryDy=0;exitX=0;exitY=0.5;exitDx=0;exitDy=0;" edge="1" parent="1">
          <mxGeometry relative="1" as="geometry">
            <mxPoint x="3300" y="1334" as="sourcePoint" />
            <mxPoint x="3220" y="1374" as="targetPoint" />
          </mxGeometry>
        </mxCell>
        <mxCell id="MsxnQjkOtoa7HXYsfpHn-59" value="&amp;lt;extend&amp;gt;" style="edgeLabel;html=1;align=center;verticalAlign=middle;resizable=0;points=[];" connectable="0" vertex="1" parent="MsxnQjkOtoa7HXYsfpHn-58">
          <mxGeometry x="-0.0937" y="1" relative="1" as="geometry">
            <mxPoint as="offset" />
          </mxGeometry>
        </mxCell>
        <mxCell id="MsxnQjkOtoa7HXYsfpHn-60" style="rounded=0;orthogonalLoop=1;jettySize=auto;html=1;entryX=1;entryY=0.5;entryDx=0;entryDy=0;exitX=0;exitY=0.5;exitDx=0;exitDy=0;" edge="1" parent="1">
          <mxGeometry relative="1" as="geometry">
            <mxPoint x="3300" y="1414" as="sourcePoint" />
            <mxPoint x="3220" y="1374" as="targetPoint" />
          </mxGeometry>
        </mxCell>
        <mxCell id="MsxnQjkOtoa7HXYsfpHn-61" value="&amp;lt;extend&amp;gt;" style="edgeLabel;html=1;align=center;verticalAlign=middle;resizable=0;points=[];" connectable="0" vertex="1" parent="MsxnQjkOtoa7HXYsfpHn-60">
          <mxGeometry x="-0.1448" relative="1" as="geometry">
            <mxPoint y="1" as="offset" />
          </mxGeometry>
        </mxCell>
        <mxCell id="MsxnQjkOtoa7HXYsfpHn-63" value="Subsistema de Ingresos" style="text;html=1;align=center;verticalAlign=middle;whiteSpace=wrap;rounded=0;" vertex="1" parent="1">
          <mxGeometry x="3290" y="902" width="150" height="30" as="geometry" />
        </mxCell>
        <mxCell id="MsxnQjkOtoa7HXYsfpHn-64" value="Subsistema de Egresos&lt;span style=&quot;color: rgba(0, 0, 0, 0); font-family: monospace; font-size: 0px; text-align: start; text-wrap: nowrap;&quot;&gt;%3CmxGraphModel%3E%3Croot%3E%3CmxCell%20id%3D%220%22%2F%3E%3CmxCell%20id%3D%221%22%20parent%3D%220%22%2F%3E%3CmxCell%20id%3D%222%22%20value%3D%22Subsistema%20de%20Ingresos%22%20style%3D%22text%3Bhtml%3D1%3Balign%3Dcenter%3BverticalAlign%3Dmiddle%3BwhiteSpace%3Dwrap%3Brounded%3D0%3B%22%20vertex%3D%221%22%20parent%3D%221%22%3E%3CmxGeometry%20x%3D%22550%22%20y%3D%22750%22%20width%3D%22150%22%20height%3D%2230%22%20as%3D%22geometry%22%2F%3E%3C%2FmxCell%3E%3C%2Froot%3E%3C%2FmxGraphModel%3E&lt;/span&gt;" style="text;html=1;align=center;verticalAlign=middle;whiteSpace=wrap;rounded=0;" vertex="1" parent="1">
          <mxGeometry x="3290" y="1232" width="150" height="30" as="geometry" />
        </mxCell>
        <mxCell id="MsxnQjkOtoa7HXYsfpHn-67" value="Subsistema de Usuarios" style="text;html=1;align=center;verticalAlign=middle;whiteSpace=wrap;rounded=0;" vertex="1" parent="1">
          <mxGeometry x="3290" y="1444" width="150" height="30" as="geometry" />
        </mxCell>
        <mxCell id="MsxnQjkOtoa7HXYsfpHn-68" value="Registrar granos" style="ellipse;whiteSpace=wrap;html=1;" vertex="1" parent="1">
          <mxGeometry x="3680" y="580" width="120" height="60" as="geometry" />
        </mxCell>
        <mxCell id="MsxnQjkOtoa7HXYsfpHn-69" value="Buscar contrato" style="ellipse;whiteSpace=wrap;html=1;" vertex="1" parent="1">
          <mxGeometry x="3480" y="1388" width="120" height="60" as="geometry" />
        </mxCell>
        <mxCell id="MsxnQjkOtoa7HXYsfpHn-70" value="Filtrar búsqueda" style="ellipse;whiteSpace=wrap;html=1;" vertex="1" parent="1">
          <mxGeometry x="3680" y="1348" width="120" height="60" as="geometry" />
        </mxCell>
        <mxCell id="MsxnQjkOtoa7HXYsfpHn-71" style="rounded=0;orthogonalLoop=1;jettySize=auto;html=1;entryX=1;entryY=0.5;entryDx=0;entryDy=0;exitX=0;exitY=0.5;exitDx=0;exitDy=0;" edge="1" parent="1" source="MsxnQjkOtoa7HXYsfpHn-73" target="MsxnQjkOtoa7HXYsfpHn-124">
          <mxGeometry relative="1" as="geometry" />
        </mxCell>
        <mxCell id="MsxnQjkOtoa7HXYsfpHn-72" value="&amp;lt;extend&amp;gt;" style="edgeLabel;html=1;align=center;verticalAlign=middle;resizable=0;points=[];" connectable="0" vertex="1" parent="MsxnQjkOtoa7HXYsfpHn-71">
          <mxGeometry x="0.0719" y="3" relative="1" as="geometry">
            <mxPoint as="offset" />
          </mxGeometry>
        </mxCell>
        <mxCell id="MsxnQjkOtoa7HXYsfpHn-73" value="Generar informe" style="ellipse;whiteSpace=wrap;html=1;" vertex="1" parent="1">
          <mxGeometry x="3680" y="1428" width="120" height="60" as="geometry" />
        </mxCell>
        <mxCell id="MsxnQjkOtoa7HXYsfpHn-74" style="rounded=0;orthogonalLoop=1;jettySize=auto;html=1;entryX=1;entryY=0.5;entryDx=0;entryDy=0;exitX=0;exitY=0.5;exitDx=0;exitDy=0;" edge="1" parent="1" target="MsxnQjkOtoa7HXYsfpHn-69">
          <mxGeometry relative="1" as="geometry">
            <mxPoint x="3680" y="1378" as="sourcePoint" />
            <mxPoint x="3600" y="1418" as="targetPoint" />
          </mxGeometry>
        </mxCell>
        <mxCell id="MsxnQjkOtoa7HXYsfpHn-75" value="&amp;lt;extend&amp;gt;" style="edgeLabel;html=1;align=center;verticalAlign=middle;resizable=0;points=[];" connectable="0" vertex="1" parent="MsxnQjkOtoa7HXYsfpHn-74">
          <mxGeometry x="-0.1085" y="3" relative="1" as="geometry">
            <mxPoint as="offset" />
          </mxGeometry>
        </mxCell>
        <mxCell id="MsxnQjkOtoa7HXYsfpHn-76" style="rounded=0;orthogonalLoop=1;jettySize=auto;html=1;entryX=1;entryY=0.5;entryDx=0;entryDy=0;exitX=0;exitY=0.5;exitDx=0;exitDy=0;" edge="1" parent="1" target="MsxnQjkOtoa7HXYsfpHn-69">
          <mxGeometry relative="1" as="geometry">
            <mxPoint x="3680" y="1458" as="sourcePoint" />
            <mxPoint x="3600" y="1418" as="targetPoint" />
          </mxGeometry>
        </mxCell>
        <mxCell id="MsxnQjkOtoa7HXYsfpHn-77" value="&amp;lt;extend&amp;gt;" style="edgeLabel;html=1;align=center;verticalAlign=middle;resizable=0;points=[];" connectable="0" vertex="1" parent="MsxnQjkOtoa7HXYsfpHn-76">
          <mxGeometry x="-0.0337" y="-3" relative="1" as="geometry">
            <mxPoint as="offset" />
          </mxGeometry>
        </mxCell>
        <mxCell id="MsxnQjkOtoa7HXYsfpHn-85" value="Buscar egreso" style="ellipse;whiteSpace=wrap;html=1;" vertex="1" parent="1">
          <mxGeometry x="3100" y="1132" width="120" height="60" as="geometry" />
        </mxCell>
        <mxCell id="MsxnQjkOtoa7HXYsfpHn-86" value="Filtrar búsqueda" style="ellipse;whiteSpace=wrap;html=1;" vertex="1" parent="1">
          <mxGeometry x="3300" y="1092" width="120" height="60" as="geometry" />
        </mxCell>
        <mxCell id="MsxnQjkOtoa7HXYsfpHn-87" value="Generar informe" style="ellipse;whiteSpace=wrap;html=1;" vertex="1" parent="1">
          <mxGeometry x="3300" y="1172" width="120" height="60" as="geometry" />
        </mxCell>
        <mxCell id="MsxnQjkOtoa7HXYsfpHn-88" style="rounded=0;orthogonalLoop=1;jettySize=auto;html=1;entryX=1;entryY=0.5;entryDx=0;entryDy=0;exitX=0;exitY=0.5;exitDx=0;exitDy=0;" edge="1" parent="1" target="MsxnQjkOtoa7HXYsfpHn-85">
          <mxGeometry relative="1" as="geometry">
            <mxPoint x="3300" y="1122" as="sourcePoint" />
            <mxPoint x="3220" y="1162" as="targetPoint" />
          </mxGeometry>
        </mxCell>
        <mxCell id="MsxnQjkOtoa7HXYsfpHn-89" value="&amp;lt;extend&amp;gt;" style="edgeLabel;html=1;align=center;verticalAlign=middle;resizable=0;points=[];" connectable="0" vertex="1" parent="MsxnQjkOtoa7HXYsfpHn-88">
          <mxGeometry x="-0.1085" y="3" relative="1" as="geometry">
            <mxPoint as="offset" />
          </mxGeometry>
        </mxCell>
        <mxCell id="MsxnQjkOtoa7HXYsfpHn-90" style="rounded=0;orthogonalLoop=1;jettySize=auto;html=1;entryX=1;entryY=0.5;entryDx=0;entryDy=0;exitX=0;exitY=0.5;exitDx=0;exitDy=0;" edge="1" parent="1" target="MsxnQjkOtoa7HXYsfpHn-85">
          <mxGeometry relative="1" as="geometry">
            <mxPoint x="3300" y="1202" as="sourcePoint" />
            <mxPoint x="3220" y="1162" as="targetPoint" />
          </mxGeometry>
        </mxCell>
        <mxCell id="MsxnQjkOtoa7HXYsfpHn-91" value="&amp;lt;extend&amp;gt;" style="edgeLabel;html=1;align=center;verticalAlign=middle;resizable=0;points=[];" connectable="0" vertex="1" parent="MsxnQjkOtoa7HXYsfpHn-90">
          <mxGeometry x="-0.0337" y="-3" relative="1" as="geometry">
            <mxPoint as="offset" />
          </mxGeometry>
        </mxCell>
        <mxCell id="MsxnQjkOtoa7HXYsfpHn-92" value="Buscar ingreso" style="ellipse;whiteSpace=wrap;html=1;" vertex="1" parent="1">
          <mxGeometry x="3100" y="802" width="120" height="60" as="geometry" />
        </mxCell>
        <mxCell id="MsxnQjkOtoa7HXYsfpHn-93" value="Filtrar búsqueda" style="ellipse;whiteSpace=wrap;html=1;" vertex="1" parent="1">
          <mxGeometry x="3300" y="762" width="120" height="60" as="geometry" />
        </mxCell>
        <mxCell id="MsxnQjkOtoa7HXYsfpHn-94" value="Generar informe" style="ellipse;whiteSpace=wrap;html=1;" vertex="1" parent="1">
          <mxGeometry x="3300" y="842" width="120" height="60" as="geometry" />
        </mxCell>
        <mxCell id="MsxnQjkOtoa7HXYsfpHn-95" style="rounded=0;orthogonalLoop=1;jettySize=auto;html=1;entryX=1;entryY=0.5;entryDx=0;entryDy=0;exitX=0;exitY=0.5;exitDx=0;exitDy=0;" edge="1" parent="1" target="MsxnQjkOtoa7HXYsfpHn-92">
          <mxGeometry relative="1" as="geometry">
            <mxPoint x="3300" y="792" as="sourcePoint" />
            <mxPoint x="3220" y="832" as="targetPoint" />
          </mxGeometry>
        </mxCell>
        <mxCell id="MsxnQjkOtoa7HXYsfpHn-96" value="&amp;lt;extend&amp;gt;" style="edgeLabel;html=1;align=center;verticalAlign=middle;resizable=0;points=[];" connectable="0" vertex="1" parent="MsxnQjkOtoa7HXYsfpHn-95">
          <mxGeometry x="-0.1085" y="3" relative="1" as="geometry">
            <mxPoint as="offset" />
          </mxGeometry>
        </mxCell>
        <mxCell id="MsxnQjkOtoa7HXYsfpHn-97" style="rounded=0;orthogonalLoop=1;jettySize=auto;html=1;entryX=1;entryY=0.5;entryDx=0;entryDy=0;exitX=0;exitY=0.5;exitDx=0;exitDy=0;" edge="1" parent="1" target="MsxnQjkOtoa7HXYsfpHn-92">
          <mxGeometry relative="1" as="geometry">
            <mxPoint x="3300" y="872" as="sourcePoint" />
            <mxPoint x="3220" y="832" as="targetPoint" />
          </mxGeometry>
        </mxCell>
        <mxCell id="MsxnQjkOtoa7HXYsfpHn-98" value="&amp;lt;extend&amp;gt;" style="edgeLabel;html=1;align=center;verticalAlign=middle;resizable=0;points=[];" connectable="0" vertex="1" parent="MsxnQjkOtoa7HXYsfpHn-97">
          <mxGeometry x="-0.0337" y="-3" relative="1" as="geometry">
            <mxPoint as="offset" />
          </mxGeometry>
        </mxCell>
        <mxCell id="MsxnQjkOtoa7HXYsfpHn-100" value="Encargado de&lt;div&gt;&amp;nbsp;Logísitica&lt;/div&gt;" style="shape=umlActor;verticalLabelPosition=bottom;verticalAlign=top;html=1;outlineConnect=0;" vertex="1" parent="1">
          <mxGeometry x="2910" y="760" width="30" height="60" as="geometry" />
        </mxCell>
        <mxCell id="MsxnQjkOtoa7HXYsfpHn-137" style="rounded=0;orthogonalLoop=1;jettySize=auto;html=1;endArrow=none;endFill=0;entryX=0;entryY=0.3333333333333333;entryDx=0;entryDy=0;entryPerimeter=0;" edge="1" parent="1" source="MsxnQjkOtoa7HXYsfpHn-120" target="MsxnQjkOtoa7HXYsfpHn-154">
          <mxGeometry relative="1" as="geometry">
            <mxPoint x="4000" y="730" as="targetPoint" />
            <Array as="points">
              <mxPoint x="3800" y="650" />
            </Array>
          </mxGeometry>
        </mxCell>
        <mxCell id="MsxnQjkOtoa7HXYsfpHn-120" value="Modificar grano" style="ellipse;whiteSpace=wrap;html=1;" vertex="1" parent="1">
          <mxGeometry x="3480" y="620" width="120" height="60" as="geometry" />
        </mxCell>
        <mxCell id="MsxnQjkOtoa7HXYsfpHn-124" value="Buscar deuda" style="ellipse;whiteSpace=wrap;html=1;" vertex="1" parent="1">
          <mxGeometry x="3480" y="1474" width="120" height="60" as="geometry" />
        </mxCell>
        <mxCell id="MsxnQjkOtoa7HXYsfpHn-125" value="Filtrar deuda" style="ellipse;whiteSpace=wrap;html=1;" vertex="1" parent="1">
          <mxGeometry x="3680" y="1510" width="120" height="60" as="geometry" />
        </mxCell>
        <mxCell id="MsxnQjkOtoa7HXYsfpHn-126" style="rounded=0;orthogonalLoop=1;jettySize=auto;html=1;entryX=1;entryY=0.5;entryDx=0;entryDy=0;exitX=0;exitY=0.5;exitDx=0;exitDy=0;" edge="1" parent="1" source="MsxnQjkOtoa7HXYsfpHn-125" target="MsxnQjkOtoa7HXYsfpHn-124">
          <mxGeometry relative="1" as="geometry">
            <mxPoint x="3680" y="1464" as="sourcePoint" />
            <mxPoint x="3600" y="1504" as="targetPoint" />
          </mxGeometry>
        </mxCell>
        <mxCell id="MsxnQjkOtoa7HXYsfpHn-127" value="&amp;lt;extend&amp;gt;" style="edgeLabel;html=1;align=center;verticalAlign=middle;resizable=0;points=[];" connectable="0" vertex="1" parent="MsxnQjkOtoa7HXYsfpHn-126">
          <mxGeometry x="-0.1085" y="3" relative="1" as="geometry">
            <mxPoint as="offset" />
          </mxGeometry>
        </mxCell>
        <mxCell id="MsxnQjkOtoa7HXYsfpHn-130" value="Buscar almacén" style="ellipse;whiteSpace=wrap;html=1;" vertex="1" parent="1">
          <mxGeometry x="3480" y="1020" width="120" height="60" as="geometry" />
        </mxCell>
        <mxCell id="MsxnQjkOtoa7HXYsfpHn-131" value="Filtrar búsqueda" style="ellipse;whiteSpace=wrap;html=1;" vertex="1" parent="1">
          <mxGeometry x="3680" y="980" width="120" height="60" as="geometry" />
        </mxCell>
        <mxCell id="MsxnQjkOtoa7HXYsfpHn-132" value="Generar informe" style="ellipse;whiteSpace=wrap;html=1;" vertex="1" parent="1">
          <mxGeometry x="3680" y="1060" width="120" height="60" as="geometry" />
        </mxCell>
        <mxCell id="MsxnQjkOtoa7HXYsfpHn-133" style="rounded=0;orthogonalLoop=1;jettySize=auto;html=1;entryX=1;entryY=0.5;entryDx=0;entryDy=0;exitX=0;exitY=0.5;exitDx=0;exitDy=0;" edge="1" parent="1" target="MsxnQjkOtoa7HXYsfpHn-130">
          <mxGeometry relative="1" as="geometry">
            <mxPoint x="3680" y="1010" as="sourcePoint" />
            <mxPoint x="3600" y="1050" as="targetPoint" />
          </mxGeometry>
        </mxCell>
        <mxCell id="MsxnQjkOtoa7HXYsfpHn-134" value="&amp;lt;extend&amp;gt;" style="edgeLabel;html=1;align=center;verticalAlign=middle;resizable=0;points=[];" connectable="0" vertex="1" parent="MsxnQjkOtoa7HXYsfpHn-133">
          <mxGeometry x="-0.1085" y="3" relative="1" as="geometry">
            <mxPoint as="offset" />
          </mxGeometry>
        </mxCell>
        <mxCell id="MsxnQjkOtoa7HXYsfpHn-135" style="rounded=0;orthogonalLoop=1;jettySize=auto;html=1;entryX=1;entryY=0.5;entryDx=0;entryDy=0;exitX=0;exitY=0.5;exitDx=0;exitDy=0;" edge="1" parent="1" target="MsxnQjkOtoa7HXYsfpHn-130">
          <mxGeometry relative="1" as="geometry">
            <mxPoint x="3680" y="1090" as="sourcePoint" />
            <mxPoint x="3600" y="1050" as="targetPoint" />
          </mxGeometry>
        </mxCell>
        <mxCell id="MsxnQjkOtoa7HXYsfpHn-136" value="&amp;lt;extend&amp;gt;" style="edgeLabel;html=1;align=center;verticalAlign=middle;resizable=0;points=[];" connectable="0" vertex="1" parent="MsxnQjkOtoa7HXYsfpHn-135">
          <mxGeometry x="-0.0337" y="-3" relative="1" as="geometry">
            <mxPoint as="offset" />
          </mxGeometry>
        </mxCell>
        <mxCell id="MsxnQjkOtoa7HXYsfpHn-142" value="Subsistema de Almacenes" style="text;html=1;align=center;verticalAlign=middle;whiteSpace=wrap;rounded=0;" vertex="1" parent="1">
          <mxGeometry x="3670" y="1120" width="150" height="30" as="geometry" />
        </mxCell>
        <mxCell id="MsxnQjkOtoa7HXYsfpHn-143" style="rounded=0;orthogonalLoop=1;jettySize=auto;html=1;endArrow=none;endFill=0;entryX=0;entryY=0.3333333333333333;entryDx=0;entryDy=0;entryPerimeter=0;" edge="1" parent="1" target="MsxnQjkOtoa7HXYsfpHn-154">
          <mxGeometry relative="1" as="geometry">
            <mxPoint x="4000" y="810" as="targetPoint" />
            <mxPoint x="3600" y="730" as="sourcePoint" />
            <Array as="points">
              <mxPoint x="3800" y="730" />
            </Array>
          </mxGeometry>
        </mxCell>
        <mxCell id="MsxnQjkOtoa7HXYsfpHn-144" style="rounded=0;orthogonalLoop=1;jettySize=auto;html=1;endArrow=none;endFill=0;entryX=0;entryY=0.3333333333333333;entryDx=0;entryDy=0;entryPerimeter=0;" edge="1" parent="1" target="MsxnQjkOtoa7HXYsfpHn-154">
          <mxGeometry relative="1" as="geometry">
            <mxPoint x="4000" y="890" as="targetPoint" />
            <mxPoint x="3600" y="810" as="sourcePoint" />
            <Array as="points">
              <mxPoint x="3800" y="810" />
            </Array>
          </mxGeometry>
        </mxCell>
        <mxCell id="MsxnQjkOtoa7HXYsfpHn-145" style="rounded=0;orthogonalLoop=1;jettySize=auto;html=1;endArrow=none;endFill=0;" edge="1" parent="1">
          <mxGeometry relative="1" as="geometry">
            <mxPoint x="4000" y="1100" as="targetPoint" />
            <mxPoint x="3600" y="890" as="sourcePoint" />
            <Array as="points">
              <mxPoint x="3800" y="890" />
            </Array>
          </mxGeometry>
        </mxCell>
        <mxCell id="MsxnQjkOtoa7HXYsfpHn-146" style="rounded=0;orthogonalLoop=1;jettySize=auto;html=1;endArrow=none;endFill=0;" edge="1" parent="1">
          <mxGeometry relative="1" as="geometry">
            <mxPoint x="4000" y="1100" as="targetPoint" />
            <mxPoint x="3600" y="970" as="sourcePoint" />
            <Array as="points">
              <mxPoint x="3800" y="970" />
            </Array>
          </mxGeometry>
        </mxCell>
        <mxCell id="MsxnQjkOtoa7HXYsfpHn-147" style="rounded=0;orthogonalLoop=1;jettySize=auto;html=1;endArrow=none;endFill=0;entryX=0;entryY=0.3333333333333333;entryDx=0;entryDy=0;entryPerimeter=0;" edge="1" parent="1" target="MsxnQjkOtoa7HXYsfpHn-154">
          <mxGeometry relative="1" as="geometry">
            <mxPoint x="4000" y="1130" as="targetPoint" />
            <mxPoint x="3600" y="1050" as="sourcePoint" />
            <Array as="points">
              <mxPoint x="3800" y="1050" />
            </Array>
          </mxGeometry>
        </mxCell>
        <mxCell id="MsxnQjkOtoa7HXYsfpHn-148" style="rounded=0;orthogonalLoop=1;jettySize=auto;html=1;endArrow=none;endFill=0;entryX=0;entryY=0.3333333333333333;entryDx=0;entryDy=0;entryPerimeter=0;" edge="1" parent="1" target="MsxnQjkOtoa7HXYsfpHn-154">
          <mxGeometry relative="1" as="geometry">
            <mxPoint x="4000" y="1338" as="targetPoint" />
            <mxPoint x="3600" y="1258" as="sourcePoint" />
            <Array as="points">
              <mxPoint x="3800" y="1258" />
            </Array>
          </mxGeometry>
        </mxCell>
        <mxCell id="MsxnQjkOtoa7HXYsfpHn-149" style="rounded=0;orthogonalLoop=1;jettySize=auto;html=1;endArrow=none;endFill=0;entryX=0;entryY=0.3333333333333333;entryDx=0;entryDy=0;entryPerimeter=0;" edge="1" parent="1" target="MsxnQjkOtoa7HXYsfpHn-154">
          <mxGeometry relative="1" as="geometry">
            <mxPoint x="4000" y="1420" as="targetPoint" />
            <mxPoint x="3600" y="1340" as="sourcePoint" />
            <Array as="points">
              <mxPoint x="3800" y="1340" />
            </Array>
          </mxGeometry>
        </mxCell>
        <mxCell id="MsxnQjkOtoa7HXYsfpHn-150" style="rounded=0;orthogonalLoop=1;jettySize=auto;html=1;endArrow=none;endFill=0;entryX=0;entryY=0.3333333333333333;entryDx=0;entryDy=0;entryPerimeter=0;" edge="1" parent="1" target="MsxnQjkOtoa7HXYsfpHn-154">
          <mxGeometry relative="1" as="geometry">
            <mxPoint x="4010" y="1498" as="targetPoint" />
            <mxPoint x="3610" y="1418" as="sourcePoint" />
            <Array as="points">
              <mxPoint x="3810" y="1418" />
            </Array>
          </mxGeometry>
        </mxCell>
        <mxCell id="MsxnQjkOtoa7HXYsfpHn-151" style="rounded=0;orthogonalLoop=1;jettySize=auto;html=1;endArrow=none;endFill=0;entryX=0;entryY=0.3333333333333333;entryDx=0;entryDy=0;entryPerimeter=0;" edge="1" parent="1" target="MsxnQjkOtoa7HXYsfpHn-154">
          <mxGeometry relative="1" as="geometry">
            <mxPoint x="4000" y="1584" as="targetPoint" />
            <mxPoint x="3600" y="1504" as="sourcePoint" />
            <Array as="points">
              <mxPoint x="3800" y="1504" />
            </Array>
          </mxGeometry>
        </mxCell>
        <mxCell id="MsxnQjkOtoa7HXYsfpHn-153" value="Subsistema de Contratos" style="text;html=1;align=center;verticalAlign=middle;whiteSpace=wrap;rounded=0;" vertex="1" parent="1">
          <mxGeometry x="3670" y="1570" width="150" height="30" as="geometry" />
        </mxCell>
        <mxCell id="MsxnQjkOtoa7HXYsfpHn-154" value="Encargado de&lt;div&gt;&amp;nbsp;Logísitica&lt;/div&gt;" style="shape=umlActor;verticalLabelPosition=bottom;verticalAlign=top;html=1;outlineConnect=0;" vertex="1" parent="1">
          <mxGeometry x="4000" y="1080" width="30" height="60" as="geometry" />
        </mxCell>
        <mxCell id="MsxnQjkOtoa7HXYsfpHn-155" style="rounded=0;orthogonalLoop=1;jettySize=auto;html=1;entryX=0;entryY=0.3333333333333333;entryDx=0;entryDy=0;entryPerimeter=0;endArrow=none;endFill=0;exitX=1;exitY=0.5;exitDx=0;exitDy=0;" edge="1" parent="1" source="MsxnQjkOtoa7HXYsfpHn-68" target="MsxnQjkOtoa7HXYsfpHn-154">
          <mxGeometry relative="1" as="geometry" />
        </mxCell>
        <mxCell id="MsxnQjkOtoa7HXYsfpHn-156" style="rounded=0;orthogonalLoop=1;jettySize=auto;html=1;endArrow=none;endFill=0;exitX=1;exitY=0.5;exitDx=0;exitDy=0;entryX=0;entryY=0.3333333333333333;entryDx=0;entryDy=0;entryPerimeter=0;" edge="1" parent="1" source="MsxnQjkOtoa7HXYsfpHn-13" target="MsxnQjkOtoa7HXYsfpHn-154">
          <mxGeometry relative="1" as="geometry">
            <mxPoint x="3810" y="620" as="sourcePoint" />
            <mxPoint x="3930" y="1140" as="targetPoint" />
          </mxGeometry>
        </mxCell>
        <mxCell id="MsxnQjkOtoa7HXYsfpHn-157" style="rounded=0;orthogonalLoop=1;jettySize=auto;html=1;entryX=0;entryY=0.3333333333333333;entryDx=0;entryDy=0;entryPerimeter=0;endArrow=none;endFill=0;exitX=1;exitY=0.5;exitDx=0;exitDy=0;" edge="1" parent="1" source="MsxnQjkOtoa7HXYsfpHn-20" target="MsxnQjkOtoa7HXYsfpHn-154">
          <mxGeometry relative="1" as="geometry">
            <mxPoint x="3820" y="630" as="sourcePoint" />
            <mxPoint x="4020" y="1120" as="targetPoint" />
          </mxGeometry>
        </mxCell>
        <mxCell id="MsxnQjkOtoa7HXYsfpHn-158" style="rounded=0;orthogonalLoop=1;jettySize=auto;html=1;entryX=0;entryY=0.3333333333333333;entryDx=0;entryDy=0;entryPerimeter=0;endArrow=none;endFill=0;exitX=1;exitY=0.5;exitDx=0;exitDy=0;" edge="1" parent="1" source="MsxnQjkOtoa7HXYsfpHn-23" target="MsxnQjkOtoa7HXYsfpHn-154">
          <mxGeometry relative="1" as="geometry">
            <mxPoint x="3830" y="640" as="sourcePoint" />
            <mxPoint x="4030" y="1130" as="targetPoint" />
          </mxGeometry>
        </mxCell>
        <mxCell id="MsxnQjkOtoa7HXYsfpHn-159" style="rounded=0;orthogonalLoop=1;jettySize=auto;html=1;entryX=0;entryY=0.3333333333333333;entryDx=0;entryDy=0;entryPerimeter=0;endArrow=none;endFill=0;exitX=1;exitY=0.5;exitDx=0;exitDy=0;" edge="1" parent="1" source="MsxnQjkOtoa7HXYsfpHn-26" target="MsxnQjkOtoa7HXYsfpHn-154">
          <mxGeometry relative="1" as="geometry">
            <mxPoint x="3840" y="650" as="sourcePoint" />
            <mxPoint x="4040" y="1140" as="targetPoint" />
          </mxGeometry>
        </mxCell>
        <mxCell id="MsxnQjkOtoa7HXYsfpHn-161" style="rounded=0;orthogonalLoop=1;jettySize=auto;html=1;entryX=0;entryY=0.3333333333333333;entryDx=0;entryDy=0;entryPerimeter=0;endArrow=none;endFill=0;exitX=1;exitY=0.5;exitDx=0;exitDy=0;" edge="1" parent="1" source="MsxnQjkOtoa7HXYsfpHn-33" target="MsxnQjkOtoa7HXYsfpHn-154">
          <mxGeometry relative="1" as="geometry">
            <mxPoint x="4040" y="1240" as="sourcePoint" />
            <mxPoint x="4060" y="1160" as="targetPoint" />
          </mxGeometry>
        </mxCell>
        <mxCell id="MsxnQjkOtoa7HXYsfpHn-162" style="rounded=0;orthogonalLoop=1;jettySize=auto;html=1;entryX=0;entryY=0.3333333333333333;entryDx=0;entryDy=0;entryPerimeter=0;endArrow=none;endFill=0;exitX=1;exitY=0.5;exitDx=0;exitDy=0;" edge="1" parent="1" source="MsxnQjkOtoa7HXYsfpHn-30" target="MsxnQjkOtoa7HXYsfpHn-154">
          <mxGeometry relative="1" as="geometry">
            <mxPoint x="3870" y="680" as="sourcePoint" />
            <mxPoint x="4070" y="1170" as="targetPoint" />
          </mxGeometry>
        </mxCell>
        <mxCell id="MsxnQjkOtoa7HXYsfpHn-165" style="rounded=0;orthogonalLoop=1;jettySize=auto;html=1;endArrow=none;endFill=0;entryX=1;entryY=0.3333333333333333;entryDx=0;entryDy=0;entryPerimeter=0;" edge="1" parent="1" target="MsxnQjkOtoa7HXYsfpHn-41">
          <mxGeometry relative="1" as="geometry">
            <mxPoint x="3010" y="1120" as="targetPoint" />
            <mxPoint x="3480" y="1051" as="sourcePoint" />
            <Array as="points">
              <mxPoint x="3320" y="1049" />
              <mxPoint x="3240" y="1120" />
              <mxPoint x="3100" y="1120" />
            </Array>
          </mxGeometry>
        </mxCell>
        <mxCell id="MsxnQjkOtoa7HXYsfpHn-166" style="rounded=0;orthogonalLoop=1;jettySize=auto;html=1;endArrow=none;endFill=0;entryX=0;entryY=0.5;entryDx=0;entryDy=0;" edge="1" parent="1" target="MsxnQjkOtoa7HXYsfpHn-124">
          <mxGeometry relative="1" as="geometry">
            <mxPoint x="3370" y="1604" as="targetPoint" />
            <mxPoint x="2940" y="1330" as="sourcePoint" />
            <Array as="points">
              <mxPoint x="3100" y="1504" />
            </Array>
          </mxGeometry>
        </mxCell>
        <mxCell id="MsxnQjkOtoa7HXYsfpHn-167" style="rounded=0;orthogonalLoop=1;jettySize=auto;html=1;endArrow=none;endFill=0;entryX=0;entryY=0.5;entryDx=0;entryDy=0;exitX=1;exitY=0.3333333333333333;exitDx=0;exitDy=0;exitPerimeter=0;" edge="1" parent="1" source="MsxnQjkOtoa7HXYsfpHn-41" target="MsxnQjkOtoa7HXYsfpHn-69">
          <mxGeometry relative="1" as="geometry">
            <mxPoint x="3490" y="1514" as="targetPoint" />
            <mxPoint x="2950" y="1340" as="sourcePoint" />
            <Array as="points">
              <mxPoint x="3100" y="1490" />
              <mxPoint x="3440" y="1490" />
            </Array>
          </mxGeometry>
        </mxCell>
        <mxCell id="MsxnQjkOtoa7HXYsfpHn-169" style="rounded=0;orthogonalLoop=1;jettySize=auto;html=1;entryX=1;entryY=0.3333333333333333;entryDx=0;entryDy=0;entryPerimeter=0;endArrow=none;endFill=0;exitX=0;exitY=0.5;exitDx=0;exitDy=0;" edge="1" parent="1" source="MsxnQjkOtoa7HXYsfpHn-85" target="MsxnQjkOtoa7HXYsfpHn-41">
          <mxGeometry relative="1" as="geometry" />
        </mxCell>
        <mxCell id="MsxnQjkOtoa7HXYsfpHn-170" style="rounded=0;orthogonalLoop=1;jettySize=auto;html=1;entryX=1;entryY=0.3333333333333333;entryDx=0;entryDy=0;entryPerimeter=0;endArrow=none;endFill=0;exitX=0;exitY=0.5;exitDx=0;exitDy=0;" edge="1" parent="1" source="MsxnQjkOtoa7HXYsfpHn-92" target="MsxnQjkOtoa7HXYsfpHn-41">
          <mxGeometry relative="1" as="geometry">
            <mxPoint x="3110" y="1172" as="sourcePoint" />
            <mxPoint x="2950" y="1340" as="targetPoint" />
          </mxGeometry>
        </mxCell>
        <mxCell id="MsxnQjkOtoa7HXYsfpHn-171" style="rounded=0;orthogonalLoop=1;jettySize=auto;html=1;entryX=1;entryY=0.3333333333333333;entryDx=0;entryDy=0;entryPerimeter=0;endArrow=none;endFill=0;exitX=0;exitY=0.5;exitDx=0;exitDy=0;" edge="1" parent="1" source="MsxnQjkOtoa7HXYsfpHn-11" target="MsxnQjkOtoa7HXYsfpHn-40">
          <mxGeometry relative="1" as="geometry">
            <mxPoint x="3120" y="1182" as="sourcePoint" />
            <mxPoint x="2960" y="1350" as="targetPoint" />
          </mxGeometry>
        </mxCell>
        <mxCell id="MsxnQjkOtoa7HXYsfpHn-172" style="rounded=0;orthogonalLoop=1;jettySize=auto;html=1;entryX=1;entryY=0.3333333333333333;entryDx=0;entryDy=0;entryPerimeter=0;endArrow=none;endFill=0;exitX=0;exitY=0.5;exitDx=0;exitDy=0;" edge="1" parent="1" source="MsxnQjkOtoa7HXYsfpHn-10" target="MsxnQjkOtoa7HXYsfpHn-40">
          <mxGeometry relative="1" as="geometry">
            <mxPoint x="3130" y="1192" as="sourcePoint" />
            <mxPoint x="2970" y="1360" as="targetPoint" />
          </mxGeometry>
        </mxCell>
        <mxCell id="MsxnQjkOtoa7HXYsfpHn-173" style="rounded=0;orthogonalLoop=1;jettySize=auto;html=1;entryX=1;entryY=0.3333333333333333;entryDx=0;entryDy=0;entryPerimeter=0;endArrow=none;endFill=0;exitX=0;exitY=0.5;exitDx=0;exitDy=0;" edge="1" parent="1" source="MsxnQjkOtoa7HXYsfpHn-9" target="MsxnQjkOtoa7HXYsfpHn-40">
          <mxGeometry relative="1" as="geometry">
            <mxPoint x="3110" y="1012" as="sourcePoint" />
            <mxPoint x="2950" y="1074" as="targetPoint" />
          </mxGeometry>
        </mxCell>
        <mxCell id="MsxnQjkOtoa7HXYsfpHn-174" style="rounded=0;orthogonalLoop=1;jettySize=auto;html=1;endArrow=none;endFill=0;exitX=0;exitY=0.5;exitDx=0;exitDy=0;entryX=1;entryY=0.3333333333333333;entryDx=0;entryDy=0;entryPerimeter=0;" edge="1" parent="1" source="MsxnQjkOtoa7HXYsfpHn-9" target="MsxnQjkOtoa7HXYsfpHn-100">
          <mxGeometry relative="1" as="geometry">
            <mxPoint x="3120" y="1022" as="sourcePoint" />
            <mxPoint x="2990" y="840" as="targetPoint" />
          </mxGeometry>
        </mxCell>
        <mxCell id="MsxnQjkOtoa7HXYsfpHn-175" style="rounded=0;orthogonalLoop=1;jettySize=auto;html=1;endArrow=none;endFill=0;exitX=0;exitY=0.5;exitDx=0;exitDy=0;entryX=1;entryY=0.3333333333333333;entryDx=0;entryDy=0;entryPerimeter=0;" edge="1" parent="1" source="MsxnQjkOtoa7HXYsfpHn-92" target="MsxnQjkOtoa7HXYsfpHn-100">
          <mxGeometry relative="1" as="geometry">
            <mxPoint x="3110" y="762" as="sourcePoint" />
            <mxPoint x="2950" y="790" as="targetPoint" />
          </mxGeometry>
        </mxCell>
        <mxCell id="MsxnQjkOtoa7HXYsfpHn-176" style="rounded=0;orthogonalLoop=1;jettySize=auto;html=1;endArrow=none;endFill=0;exitX=0;exitY=0.5;exitDx=0;exitDy=0;entryX=1;entryY=0.3333333333333333;entryDx=0;entryDy=0;entryPerimeter=0;" edge="1" parent="1" source="MsxnQjkOtoa7HXYsfpHn-10" target="MsxnQjkOtoa7HXYsfpHn-100">
          <mxGeometry relative="1" as="geometry">
            <mxPoint x="3120" y="772" as="sourcePoint" />
            <mxPoint x="2960" y="800" as="targetPoint" />
          </mxGeometry>
        </mxCell>
        <mxCell id="MsxnQjkOtoa7HXYsfpHn-177" style="rounded=0;orthogonalLoop=1;jettySize=auto;html=1;endArrow=none;endFill=0;exitX=0;exitY=0.5;exitDx=0;exitDy=0;" edge="1" parent="1" source="MsxnQjkOtoa7HXYsfpHn-11">
          <mxGeometry relative="1" as="geometry">
            <mxPoint x="3130" y="782" as="sourcePoint" />
            <mxPoint x="2940" y="780" as="targetPoint" />
          </mxGeometry>
        </mxCell>
        <mxCell id="MsxnQjkOtoa7HXYsfpHn-178" style="rounded=0;orthogonalLoop=1;jettySize=auto;html=1;endArrow=none;endFill=0;exitX=0;exitY=0.5;exitDx=0;exitDy=0;entryX=1;entryY=0.3333333333333333;entryDx=0;entryDy=0;entryPerimeter=0;" edge="1" parent="1" source="MsxnQjkOtoa7HXYsfpHn-85" target="MsxnQjkOtoa7HXYsfpHn-100">
          <mxGeometry relative="1" as="geometry">
            <mxPoint x="3140" y="792" as="sourcePoint" />
            <mxPoint x="2980" y="820" as="targetPoint" />
          </mxGeometry>
        </mxCell>
        <mxCell id="MsxnQjkOtoa7HXYsfpHn-179" style="rounded=0;orthogonalLoop=1;jettySize=auto;html=1;endArrow=none;endFill=0;exitX=0;exitY=0.5;exitDx=0;exitDy=0;entryX=1;entryY=0.3333333333333333;entryDx=0;entryDy=0;entryPerimeter=0;" edge="1" parent="1" source="MsxnQjkOtoa7HXYsfpHn-37" target="MsxnQjkOtoa7HXYsfpHn-100">
          <mxGeometry relative="1" as="geometry">
            <mxPoint x="3150" y="802" as="sourcePoint" />
            <mxPoint x="2990" y="830" as="targetPoint" />
          </mxGeometry>
        </mxCell>
        <mxCell id="MsxnQjkOtoa7HXYsfpHn-181" value="Sistema" style="text;html=1;align=center;verticalAlign=middle;whiteSpace=wrap;rounded=0;" vertex="1" parent="1">
          <mxGeometry x="3780" y="520" width="60" height="30" as="geometry" />
        </mxCell>
        <mxCell id="MsxnQjkOtoa7HXYsfpHn-182" style="rounded=0;orthogonalLoop=1;jettySize=auto;html=1;endArrow=none;endFill=0;entryX=0;entryY=0.5;entryDx=0;entryDy=0;" edge="1" parent="1" target="MsxnQjkOtoa7HXYsfpHn-130">
          <mxGeometry relative="1" as="geometry">
            <mxPoint x="3469.99999999997" y="1032" as="targetPoint" />
            <mxPoint x="3210" y="736" as="sourcePoint" />
            <Array as="points">
              <mxPoint x="3450" y="736" />
            </Array>
          </mxGeometry>
        </mxCell>
        <mxCell id="MsxnQjkOtoa7HXYsfpHn-184" value="&amp;lt;include&amp;gt;" style="edgeLabel;html=1;align=center;verticalAlign=middle;resizable=0;points=[];" connectable="0" vertex="1" parent="MsxnQjkOtoa7HXYsfpHn-182">
          <mxGeometry x="-0.54" y="3" relative="1" as="geometry">
            <mxPoint as="offset" />
          </mxGeometry>
        </mxCell>
        <mxCell id="MsxnQjkOtoa7HXYsfpHn-183" style="rounded=0;orthogonalLoop=1;jettySize=auto;html=1;endArrow=none;endFill=0;entryX=0;entryY=0.5;entryDx=0;entryDy=0;" edge="1" parent="1" target="MsxnQjkOtoa7HXYsfpHn-69">
          <mxGeometry relative="1" as="geometry">
            <mxPoint x="3490" y="1067" as="targetPoint" />
            <mxPoint x="3220" y="753" as="sourcePoint" />
            <Array as="points">
              <mxPoint x="3440" y="753" />
            </Array>
          </mxGeometry>
        </mxCell>
        <mxCell id="MsxnQjkOtoa7HXYsfpHn-185" value="&amp;lt;include&amp;gt;" style="edgeLabel;html=1;align=center;verticalAlign=middle;resizable=0;points=[];" connectable="0" vertex="1" parent="1">
          <mxGeometry x="3319.999047619048" y="752" as="geometry" />
        </mxCell>
        <mxCell id="MsxnQjkOtoa7HXYsfpHn-186" style="rounded=0;orthogonalLoop=1;jettySize=auto;html=1;endArrow=none;endFill=0;entryX=0;entryY=0.5;entryDx=0;entryDy=0;" edge="1" parent="1" target="MsxnQjkOtoa7HXYsfpHn-130">
          <mxGeometry relative="1" as="geometry">
            <mxPoint x="3469.99999999997" y="1035" as="targetPoint" />
            <mxPoint x="3210" y="985" as="sourcePoint" />
            <Array as="points">
              <mxPoint x="3390" y="985" />
            </Array>
          </mxGeometry>
        </mxCell>
        <mxCell id="MsxnQjkOtoa7HXYsfpHn-187" value="&amp;lt;include&amp;gt;" style="edgeLabel;html=1;align=center;verticalAlign=middle;resizable=0;points=[];" connectable="0" vertex="1" parent="MsxnQjkOtoa7HXYsfpHn-186">
          <mxGeometry x="-0.54" y="3" relative="1" as="geometry">
            <mxPoint x="17" y="3" as="offset" />
          </mxGeometry>
        </mxCell>
        <mxCell id="MsxnQjkOtoa7HXYsfpHn-188" style="rounded=0;orthogonalLoop=1;jettySize=auto;html=1;endArrow=none;endFill=0;" edge="1" parent="1">
          <mxGeometry relative="1" as="geometry">
            <mxPoint x="3480" y="1420" as="targetPoint" />
            <mxPoint x="3220" y="1000" as="sourcePoint" />
            <Array as="points">
              <mxPoint x="3420" y="1020" />
            </Array>
          </mxGeometry>
        </mxCell>
        <mxCell id="MsxnQjkOtoa7HXYsfpHn-189" value="&amp;lt;include&amp;gt;" style="edgeLabel;html=1;align=center;verticalAlign=middle;resizable=0;points=[];" connectable="0" vertex="1" parent="MsxnQjkOtoa7HXYsfpHn-188">
          <mxGeometry x="-0.54" y="3" relative="1" as="geometry">
            <mxPoint x="-29" y="-1" as="offset" />
          </mxGeometry>
        </mxCell>
        <mxCell id="MsxnQjkOtoa7HXYsfpHn-190" style="rounded=0;orthogonalLoop=1;jettySize=auto;html=1;endArrow=none;endFill=0;" edge="1" parent="1">
          <mxGeometry relative="1" as="geometry">
            <mxPoint x="3480" y="1050" as="targetPoint" />
            <mxPoint x="3220" y="1080" as="sourcePoint" />
            <Array as="points">
              <mxPoint x="3400" y="1080" />
            </Array>
          </mxGeometry>
        </mxCell>
        <mxCell id="MsxnQjkOtoa7HXYsfpHn-191" value="&amp;lt;include&amp;gt;" style="edgeLabel;html=1;align=center;verticalAlign=middle;resizable=0;points=[];rotation=0;" connectable="0" vertex="1" parent="MsxnQjkOtoa7HXYsfpHn-190">
          <mxGeometry x="-0.54" y="3" relative="1" as="geometry">
            <mxPoint x="49" y="3" as="offset" />
          </mxGeometry>
        </mxCell>
      </root>
    </mxGraphModel>
  </diagram>
</mxfile>
